<svg xmlns="http://www.w3.org/2000/svg" width="1366.903" height="425.856" viewBox="0 0 1366.903 425.856">
  <g id="Background" transform="translate(0.432 -236.365)">
    <path id="Trazado_156" data-name="Trazado 156" d="M1998.412,961.921V928.849h-12.34V871.981h-66.166v56.867h-61.86V836.185h-68.262v60.153h-15.567V824.523h-68.262V959.172h-86.331v78.517h-32.256v-34.955h-74.093v20.674h-42.54V930.854h-52.549v68.507h-52.549V1250.38h685.494V961.921Z" transform="translate(-1365.638 -588.158)" fill="#e2eef9"/>
    <path id="Trazado_155" data-name="Trazado 155" d="M1189.108,1083.826V1366.8H502.323v-246.24h52.646v-67.2h52.646v90.792h42.62v-20.286h74.243v34.3h32.311v-77.023H843.28V949.05h68.39V1019.5h15.6V960.484h68.39v90.9h61.984V995.6h66.292v55.782h12.361v32.441Z" transform="translate(177.364 -704.636)" fill="#e2eef9"/>
    <g id="Grupo_1180" data-name="Grupo 1180" transform="translate(-207.125 -546.413)">
      <g id="Grupo_37" data-name="Grupo 37" transform="translate(206.693 1045.564)">
        <g id="Grupo_10" data-name="Grupo 10" transform="translate(22.423 1.644)">
          <g id="Grupo_6" data-name="Grupo 6" transform="translate(0 35.639)">
            <path id="Trazado_9" data-name="Trazado 9" d="M272.146,1444.629a171.086,171.086,0,0,0-2.03-21.266c-1.456-8.3-2.767-13.081-2.782-13.132-.191-.73-2.962-3.685-9.122-3.594s-5.576,3.966-5.576,3.966h0a1.246,1.246,0,0,0,.044.344,183.6,183.6,0,0,1,5.469,46.533c0,.366-.045,1-.018,1.422,0,0,14.274.363,14.278,0C272.906,1456.62,272.664,1450.3,272.146,1444.629Z" transform="translate(-252.622 -1406.635)" fill="#d1a586"/>
            <path id="Trazado_10" data-name="Trazado 10" d="M275.611,1457.351c0,.364-.2.655-.436.655h-.006c-.237-.005-.426-.3-.429-.655H262.506c0,.364-.2.655-.436.655h-.006c-.242-.005-.434-.307-.431-.674a179.646,179.646,0,0,0-1.015-20.614,160.073,160.073,0,0,0-4.675-25.771,1.251,1.251,0,0,1-.044-.345s-.584-3.875,5.575-3.966,8.931,2.864,9.123,3.594c.011.038.753,2.743,1.74,7.607.327,1.611.68,3.459,1.042,5.524a171.307,171.307,0,0,1,2.03,21.266C275.926,1450.3,276.108,1455.07,275.611,1457.351Z" transform="translate(-254.292 -1406.635)" fill="#e5bd9e"/>
            <path id="Trazado_11" data-name="Trazado 11" d="M280.573,1469.1c0,.364-.2.655-.436.655h-.006c-.237-.005-.426-.3-.429-.655H267.469c0,.364-.2.655-.436.655h-.006c-.242-.005-.434-.307-.431-.674a179.655,179.655,0,0,0-1.015-20.614c2.023-9.749,9.84-17.205,11.719-18.881.327,1.611.68,3.459,1.042,5.524a171.314,171.314,0,0,1,2.03,21.266C280.889,1462.041,281.071,1466.814,280.573,1469.1Z" transform="translate(-259.254 -1418.379)" fill="#dfb697"/>
            <g id="Grupo_1" data-name="Grupo 1" transform="translate(3.956 1.538)">
              <path id="Trazado_12" data-name="Trazado 12" d="M265.727,1458.829l-.042-.04v-.037c0-.011,0-.022,0-.032,0-.228-.339-15.623-1.208-22.964-.517-4.368-3.683-22.6-3.7-22.677a.984.984,0,0,1-.035-.275,2.359,2.359,0,0,1,.564-1.755,4.7,4.7,0,0,1,3.649-1.263l.208,0c4.445,0,6.49,2.149,6.642,2.726.033.109,3.544,14.188,4.153,22.138.056.737.182,1.991.34,3.578.933,9.33,1.819,19.3.506,19.53a33.449,33.449,0,0,1-5.649.4c-.52,0-1.019-.006-1.488-.011-.416,0-.808-.009-1.173-.009-1.635,0-2.651.1-2.668.585v.027c0,.037-.012.078-.066.08Zm-.568-48.906h-.206a4.576,4.576,0,0,0-3.545,1.214,2.257,2.257,0,0,0-.532,1.655.9.9,0,0,0,.031.247c.017.057,3.178,18.224,3.707,22.7.8,6.779,1.149,20.415,1.2,22.663.325-.334,1.24-.407,2.675-.407.365,0,.758,0,1.174.009.469.005.966.011,1.486.011h0a33.393,33.393,0,0,0,5.625-.4c1.294-.224,0-13.162-.621-19.379-.159-1.588-.284-2.842-.341-3.582-.61-7.959-4.114-21.984-4.148-22.113C271.52,1411.99,269.523,1409.924,265.159,1409.924Z" transform="translate(-260.725 -1409.784)" fill="#d1a586"/>
            </g>
            <path id="Trazado_13" data-name="Trazado 13" d="M265.806,1507.812h47.961s-1.117-4.458-28.893-3.794C265.218,1504.487,265.806,1507.812,265.806,1507.812Z" transform="translate(-259.368 -1456.44)" fill="#e5bd9e"/>
            <g id="Grupo_2" data-name="Grupo 2" transform="translate(2.534 52.063)">
              <path id="Trazado_14" data-name="Trazado 14" d="M257.812,1559.149c5.561-27.767,4.131-44.807,4.124-45.021-.014-.427.785-.816,1.215-.829s2.355-.127,2.577.24c.29.479,1.41,21.473-6.877,45.611Z" transform="translate(-257.812 -1513.274)" fill="#d1a586"/>
            </g>
            <g id="Grupo_3" data-name="Grupo 3" transform="translate(39.184 52.063)">
              <path id="Trazado_15" data-name="Trazado 15" d="M341.013,1559.149c-5.561-27.767-4.131-44.807-4.124-45.021.014-.427-.785-.816-1.215-.829s-2.354-.127-2.576.24c-.291.479-1.411,21.473,6.877,45.611Z" transform="translate(-332.883 -1513.274)" fill="#d1a586"/>
            </g>
            <g id="Grupo_4" data-name="Grupo 4" transform="translate(48.059 52.063)">
              <path id="Trazado_16" data-name="Trazado 16" d="M359.191,1559.149c-5.561-27.767-4.131-44.807-4.124-45.021.014-.427-.785-.816-1.215-.829s-2.355-.127-2.577.24c-.291.479-1.41,21.473,6.877,45.611Z" transform="translate(-351.06 -1513.274)" fill="#a0795f"/>
            </g>
            <g id="Grupo_5" data-name="Grupo 5" transform="translate(11.468 52.063)">
              <path id="Trazado_17" data-name="Trazado 17" d="M276.112,1559.149c5.561-27.767,4.131-44.807,4.124-45.021-.014-.427.785-.816,1.215-.829s2.354-.127,2.576.24c.292.479,1.411,21.473-6.877,45.611Z" transform="translate(-276.112 -1513.274)" fill="#a0795f"/>
            </g>
            <path id="Rectángulo_4" data-name="Rectángulo 4" d="M1.287,0H48.639a1.288,1.288,0,0,1,1.288,1.288v0a1.287,1.287,0,0,1-1.287,1.287H1.288A1.288,1.288,0,0,1,0,1.287v0A1.287,1.287,0,0,1,1.287,0Z" transform="translate(5.484 50.22)" fill="#d1a586"/>
          </g>
          <g id="Grupo_9" data-name="Grupo 9" transform="translate(10.663)">
            <path id="Trazado_18" data-name="Trazado 18" d="M341.291,1449.749s8.768,10.014,10.562,9.851c1.834-.167,2.952-.745,4.548,0,1.146.535,4.771,3.45,3.8,3.257s-2.734-.419-3.2-.463c-.64-.06-1.667-.075-2.364-.2-.441-.077-2.033-.122-2.565-.139-2.308-.076-13.222-6.452-13.222-6.452Z" transform="translate(-307.414 -1393.061)" fill="#ffb27d"/>
            <path id="Trazado_19" data-name="Trazado 19" d="M302.255,1339.473s-.4-5.03-7.631-3.724c-1.913.345-3.227-3.065-6.358-1.85-6.742,2.617-7.139-.838-9.087,4.011-.815,2.03-6,4.393-4.418,7.9s-1.066,5.867.8,8.615c.964,1.423.572,3.965,5.118,4.056,2.264.045,5.79,4.24,8.331,5s10.17-.337,9.882-3.823c-.224-2.72,2.948-2.493,4.9-5.62,1.7-2.733-1.336-3.421.289-7.839C305.265,1342.964,302.162,1342.175,302.255,1339.473Z" transform="translate(-274.462 -1333.636)" fill="#1c468a"/>
            <g id="Grupo_7" data-name="Grupo 7" transform="translate(66.633 117.648)">
              <path id="Trazado_20" data-name="Trazado 20" d="M411.876,1586.534c-.155,1.682,2.187,2.092,4.9,2.227s1.893.69,5.611,1.364,5.208-.344,5.477-.847c.24-.445-1.489-1.142-3.331-1.93-.232-.1-.464-.2-.7-.3-2.073-.911-3.236-2.771-4.853-4.494-1.531-1.633-2.984-6.86-2.984-6.86l-5.052-1.079s1.419,4.7,1.911,6.714a6.218,6.218,0,0,1-.517,3.507A6.624,6.624,0,0,0,411.876,1586.534Z" transform="translate(-410.947 -1574.613)" fill="#ffb27d"/>
              <path id="Trazado_21" data-name="Trazado 21" d="M417.742,1599.476c2.713.135,1.893.69,5.611,1.364s5.208-.344,5.477-.846c.24-.445-1.489-1.142-3.331-1.931l-.029.032a10.586,10.586,0,0,1-5.632.067c-2.459-.667-4.837-2.137-6.531-2.612a6.621,6.621,0,0,0-.465,1.7C412.687,1598.931,415.03,1599.341,417.742,1599.476Z" transform="translate(-411.913 -1585.328)" fill="#c65447"/>
            </g>
            <path id="Trazado_22" data-name="Trazado 22" d="M302.9,1472.355s33.571-2.526,39.891,1.462,16.456,50.449,16.456,50.449a4.119,4.119,0,0,1-2.023.652,16.952,16.952,0,0,1-4.162-.623s-14.567-20.788-15.593-26.025-.776-9.91-3.112-10.035-31.462,3.541-35.868-4.221a17.884,17.884,0,0,1-.764-15.444Z" transform="translate(-285.644 -1402.694)" fill="#163560"/>
            <g id="Grupo_8" data-name="Grupo 8" transform="translate(55.083 117.837)">
              <path id="Trazado_23" data-name="Trazado 23" d="M388.217,1586.921c-.155,1.683,2.187,2.092,4.9,2.227s1.893.691,5.611,1.364,5.207-.344,5.476-.846c.24-.446-1.489-1.143-3.331-1.93-.232-.1-.464-.2-.7-.3-2.073-.912-3.236-2.771-4.853-4.495-1.531-1.633-2.984-6.86-2.984-6.86L387.288,1575s1.418,4.705,1.911,6.714a6.224,6.224,0,0,1-.517,3.508A6.619,6.619,0,0,0,388.217,1586.921Z" transform="translate(-387.288 -1575)" fill="#ffb27d"/>
              <path id="Trazado_24" data-name="Trazado 24" d="M394.083,1599.863c2.712.135,1.893.691,5.611,1.364s5.207-.344,5.476-.846c.24-.446-1.489-1.143-3.331-1.93l-.028.031a10.589,10.589,0,0,1-5.632.067c-2.459-.668-4.837-2.137-6.531-2.612a6.621,6.621,0,0,0-.465,1.7C389.028,1599.319,391.37,1599.728,394.083,1599.863Z" transform="translate(-388.254 -1585.715)" fill="#c65447"/>
            </g>
            <path id="Trazado_25" data-name="Trazado 25" d="M289.038,1469.926s29.822,1.411,35.982,5.643,14.48,51.051,14.48,51.051a4.123,4.123,0,0,1-2.047.573,16.969,16.969,0,0,1-4.134-.785s-13.747-21.339-14.568-26.612-.39-9.932-2.719-10.148-31.576,2.313-35.676-5.614S289.038,1469.926,289.038,1469.926Z" transform="translate(-277.064 -1403.388)" fill="#1c468a"/>
            <path id="Trazado_26" data-name="Trazado 26" d="M279.2,1381.611a.471.471,0,0,1,.038-.046,4.689,4.689,0,0,1,.832-.729l.011-.008h0c2.436-1.7,6.789-2.066,6.789-2.066v0h0v0s.475-.045,1.229-.079a22.556,22.556,0,0,0,1.422-6.868l.432.115,7.256,1.946s-.322,2.3-.472,4.482c-.033.478-.058.949-.069,1.389.21.077.4.152.576.224h0s4.149.489,5.131,1.544,2.944,8.083,3.439,9.328l-27.936.457S277.179,1384,279.2,1381.611Z" transform="translate(-276.151 -1353.176)" fill="#ffb27d"/>
            <path id="Trazado_27" data-name="Trazado 27" d="M313.314,1419.371c-.163.181-.593.946-1.2,1.866-.181.275-.378.563-.589.856a8.4,8.4,0,0,1-3.169,2.958,2.16,2.16,0,0,1-1.311.121,7.866,7.866,0,0,1-2.752-1.9,17.107,17.107,0,0,1-2.369-2.774,9.612,9.612,0,0,1-.663-1.148q-.058.444-.1.851v0a7.645,7.645,0,0,0,.06,3.126,6.173,6.173,0,0,0,2.4,1.978c2.215,1.29,4.975,2.532,4.038,3.654-.791.942-3.251,1.23-5.886,1.664a17.552,17.552,0,0,0-5.792,1.681c-.061.034-.121.068-.185.107-3.715,2.189-14.864,8.922-18.171,8.608-1.3-.124-1.062-2.614-.27-5.921,1.242-5.215,3.848-12.461,3.848-15.608,0-1.72-3.861-18.751-3.861-18.751s-.7-7.3,1.316-9.687l.873-.778.008,0h0c.129.073,8.574,4.828,13.5,5.095,4.966.266,8.793-4.408,8.793-4.408.98,1.057,2.945,8.084,3.44,9.326,0,0,4.007,15.814,5.026,16.631S313.808,1418.824,313.314,1419.371Z" transform="translate(-275.61 -1362.625)" fill="#6bb7bf"/>
            <path id="Trazado_28" data-name="Trazado 28" d="M309.993,1374s-.322,2.3-.472,4.482c-4.107-.39-6.032-4.289-6.784-6.429Z" transform="translate(-288.933 -1353.296)" fill="#f4a269"/>
            <path id="Trazado_29" data-name="Trazado 29" d="M310.319,1362.937s-9.746-.489-9.348-6.553-.592-10.212,5.647-10.157,7.3,2.449,7.655,4.506S312.864,1362.907,310.319,1362.937Z" transform="translate(-288.023 -1340.08)" fill="#ffb27d"/>
            <path id="Trazado_30" data-name="Trazado 30" d="M309.595,1346.423s-2.329-.544-3.09.589-.218,1.767-1.917,2.243-2.277.442-2.107,1.632-1.708,2.073-1.788,3.024a1.668,1.668,0,0,1-1.61,1.5c-.748.068-.408-12.269,2.481-12.813s5.676.1,6.525.782S309.595,1346.423,309.595,1346.423Z" transform="translate(-286.888 -1338.116)" fill="#1c468a"/>
            <path id="Trazado_31" data-name="Trazado 31" d="M320.016,1347.231s2.266-.159,2.673,1.133-.136,1.6.442,2.379a3.094,3.094,0,0,1,.244,2.168s4.48-8.251-.244-8.795S318.531,1344.535,320.016,1347.231Z" transform="translate(-297.309 -1338.925)" fill="#1c468a"/>
            <path id="Trazado_32" data-name="Trazado 32" d="M337.748,1434.141c-.181.276-.378.563-.589.856a8.4,8.4,0,0,1-3.169,2.958,2.162,2.162,0,0,1-1.311.12,7.865,7.865,0,0,1-2.752-1.9,17.112,17.112,0,0,1-2.369-2.773,9.61,9.61,0,0,1-.662-1.148c-.039.3-.073.581-.1.851v-1.38s.546-24.16,1.38-13.535C328.784,1425.972,334.653,1431.656,337.748,1434.141Z" transform="translate(-301.245 -1375.53)" fill="#599dad"/>
            <path id="Trazado_33" data-name="Trazado 33" d="M285.783,1419.628s-11.972,20.616,13.2,27.813c.066-.037.127-.075.187-.11a17.7,17.7,0,0,1,5.791-1.681c2.636-.432,5.1-.722,5.884-1.663.938-1.122-1.82-2.366-4.035-3.655-1.116-.651-3.458-1.283-3.764-1.945C302.813,1437.865,285.783,1419.628,285.783,1419.628Z" transform="translate(-278.8 -1377.646)" fill="#599dad"/>
          </g>
        </g>
        <g id="Grupo_14" data-name="Grupo 14" transform="translate(0 62.789)">
          <g id="Grupo_11" data-name="Grupo 11" transform="translate(10.738 3.653)">
            <path id="Trazado_34" data-name="Trazado 34" d="M242.152,1466.485l-1.924,10.9h0l-5.312,30.109-4.75,26.915a.866.866,0,0,1-.86.706.608.608,0,0,1-.614-.681l4.1-30.512,4.38-32.637.662-4.924Z" transform="translate(-228.687 -1466.362)" fill="#c69d7f"/>
          </g>
          <path id="Trazado_35" data-name="Trazado 35" d="M249.119,1477.385c.252-4.684-3.06-6.1-3.06-6.1l.662-4.924,4.322.123Z" transform="translate(-226.84 -1462.709)" fill="#a0795f"/>
          <g id="Grupo_13" data-name="Grupo 13" transform="translate(270.807 3.653)">
            <g id="Grupo_12" data-name="Grupo 12">
              <path id="Trazado_36" data-name="Trazado 36" d="M774.23,1535.115a.868.868,0,0,1-.861-.706l-4.219-23.914-6.068-34.394-1.7-9.617,4.323-.123.75,5.583,5.265,39.234,3.122,23.256A.609.609,0,0,1,774.23,1535.115Z" transform="translate(-761.385 -1466.362)" fill="#c69d7f"/>
            </g>
            <path id="Trazado_37" data-name="Trazado 37" d="M766.458,1471.945a6.2,6.2,0,0,0-3.375,4.158l-1.7-9.617,4.323-.123Z" transform="translate(-761.385 -1466.362)" fill="#a0795f"/>
          </g>
          <path id="Trazado_38" data-name="Trazado 38" d="M494.427,1466.431H210.469a3.787,3.787,0,0,1-3.776-3.776h0a3.787,3.787,0,0,1,3.776-3.776H494.427a3.787,3.787,0,0,1,3.776,3.776h0A3.787,3.787,0,0,1,494.427,1466.431Z" transform="translate(-206.693 -1458.879)" fill="#e0b594"/>
        </g>
        <g id="Grupo_16" data-name="Grupo 16" transform="translate(63.543 6.55)">
          <path id="Trazado_39" data-name="Trazado 39" d="M396.168,1388.515h-59.32l5.5-44.829h59.32Z" transform="translate(-336.848 -1343.685)" fill="#d86713"/>
          <g id="Grupo_15" data-name="Grupo 15" transform="translate(1.23 0.001)">
            <path id="Trazado_40" data-name="Trazado 40" d="M404.191,1343.688l-5.5,44.826H339.367l1.255-10.218,4.248-34.608Z" transform="translate(-339.367 -1343.688)" fill="#f1a34f"/>
            <path id="Trazado_41" data-name="Trazado 41" d="M404.191,1343.688l-5.5,44.827H339.367l1.255-10.218c48.968,2.952,50.563-27.962,50.342-34.609Z" transform="translate(-339.367 -1343.688)" fill="#e78b37"/>
            <path id="Trazado_42" data-name="Trazado 42" d="M396.319,1380.125c-.144-1.425-.889-2.845-2.31-3.021l-2.5.02a2.576,2.576,0,0,0-2.89,2.473l-1.093,33.788a2.056,2.056,0,0,1-2.054,1.989h-6.157a.845.845,0,0,0-.826.6.829.829,0,0,0,.8,1.051h19.3a.846.846,0,0,0,.109-.011h.231a.988.988,0,0,0,.992-1.087Z" transform="translate(-359.375 -1360.79)" fill="#d86713"/>
            <path id="Trazado_43" data-name="Trazado 43" d="M399.117,1380.125c-.143-1.425-.889-2.845-2.31-3.021l-2.5.02a2.576,2.576,0,0,0-2.89,2.473l-1.093,33.788a2.056,2.056,0,0,1-2.054,1.989h-6.157a.846.846,0,0,0-.826.6.829.829,0,0,0,.8,1.051h19.3a.863.863,0,0,0,.11-.011h.23a.988.988,0,0,0,.992-1.087Z" transform="translate(-360.807 -1360.79)" fill="#f1a34f"/>
          </g>
        </g>
        <g id="Grupo_28" data-name="Grupo 28" transform="translate(134.238 0)">
          <g id="Grupo_17" data-name="Grupo 17">
            <path id="Trazado_44" data-name="Trazado 44" d="M551.341,1373.478l-3.29,39.115s-.345,2.371,1.419,2.375c2.9.007,14.433,0,14.433,0s-2.182-.494-2.156-1.6c.031-1.309,3.845-40.255,3.845-40.255Z" transform="translate(-515.62 -1352.194)" fill="#d86713"/>
            <path id="Trazado_45" data-name="Trazado 45" d="M565.833,1413.514c-.571,0-11.586.036-14.41,0-1.231-.015-1.447-1.094-1.457-1.792a3.45,3.45,0,0,1,.038-.582l.085-1.016.218-2.591.193-2.289.248-2.941.208-2.483,2.337-27.793,14.251-.37s-1.606,16.3-2.742,28.163c-.127,1.322-.247,2.59-.359,3.772-.037.378-.071.748-.1,1.107-.105,1.123-.2,2.153-.286,3.063-.044.48-.085.926-.122,1.334-.145,1.6-.23,2.622-.231,2.816a1.614,1.614,0,0,0,.028.316C563.962,1413.474,565.619,1413.514,565.833,1413.514Z" transform="translate(-516.614 -1351.45)" fill="#ee9849"/>
            <path id="Trazado_46" data-name="Trazado 46" d="M483.926,1330.27l8.013,32.186,1.1,4.408,3.732,14.991H566.1l-13.755-51.585Z" transform="translate(-482.816 -1330.27)" fill="#f1a34f"/>
            <path id="Trazado_47" data-name="Trazado 47" d="M482.762,1330.27l-1.11.37,12.476,52.335,1.477-1.12Z" transform="translate(-481.652 -1330.27)" fill="#ee9849"/>
            <path id="Trazado_48" data-name="Trazado 48" d="M507.206,1437.052h68.908l1.9-1.12H508.683Z" transform="translate(-494.73 -1384.347)" fill="#d86713"/>
            <rect id="Rectángulo_5" data-name="Rectángulo 5" width="14.92" height="0.709" transform="translate(51.594 62.789) rotate(180)" fill="#f1a34f"/>
            <path id="Trazado_49" data-name="Trazado 49" d="M562.628,1372.35l-11.251-41.4H483.7v-.682h68.532l11.213,41.988Z" transform="translate(-482.699 -1330.27)" fill="#f1a34f"/>
            <path id="Trazado_50" data-name="Trazado 50" d="M564.774,1438.225l-.077.542-14.031,2.835.193-2.289.092-1.088Z" transform="translate(-516.972 -1385.52)" fill="#d86713"/>
            <path id="Trazado_51" data-name="Trazado 51" d="M565.834,1452.762c-.571,0-11.586.036-14.41,0-1.231-.015-1.447-1.094-1.457-1.792l13.965-2.628c-.145,1.6-.23,2.622-.231,2.816a1.617,1.617,0,0,0,.028.316C563.963,1452.721,565.62,1452.762,565.834,1452.762Z" transform="translate(-516.615 -1390.698)" fill="#e78b37"/>
            <path id="Trazado_52" data-name="Trazado 52" d="M536.776,1409.774l-30.458,10.443-3.732-14.992Z" transform="translate(-492.366 -1368.631)" fill="#e78b37"/>
            <path id="Trazado_53" data-name="Trazado 53" d="M483.926,1330.27h68.421l11.1,41.458H493.895Z" transform="translate(-482.816 -1330.27)" fill="#699dee"/>
          </g>
          <path id="Trazado_54" data-name="Trazado 54" d="M581.108,1423.994a2.345,2.345,0,0,0-2.2-1.841,1.473,1.473,0,0,0-1.483,1.841,2.344,2.344,0,0,0,2.2,1.841A1.473,1.473,0,0,0,581.108,1423.994Z" transform="translate(-530.65 -1377.294)" fill="#d86713"/>
          <path id="Trazado_55" data-name="Trazado 55" d="M563.193,1372.26H499.13l-7.255-28.9-.556-2.217-.475-1.89-1.113-4.433h63.14l1.222,4.433.521,1.89.611,2.217Z" transform="translate(-485.787 -1332.598)" fill="#e9f3fe"/>
          <path id="Trazado_56" data-name="Trazado 56" d="M554.093,1339.251H490.844l-1.113-4.433h63.14Z" transform="translate(-485.787 -1332.598)" fill="#afcdfb"/>
          <g id="Grupo_18" data-name="Grupo 18" transform="translate(6.54 3.67)">
            <path id="Trazado_57" data-name="Trazado 57" d="M495.064,1338.341a.418.418,0,0,1,.416-.554.757.757,0,0,1,.692.554.419.419,0,0,1-.416.554A.757.757,0,0,1,495.064,1338.341Z" transform="translate(-495.047 -1337.787)" fill="#e9f3fe"/>
            <path id="Trazado_58" data-name="Trazado 58" d="M498.835,1338.341a.419.419,0,0,1,.416-.554.757.757,0,0,1,.692.554.419.419,0,0,1-.416.554A.757.757,0,0,1,498.835,1338.341Z" transform="translate(-496.977 -1337.787)" fill="#e9f3fe"/>
            <path id="Trazado_59" data-name="Trazado 59" d="M502.9,1338.341a.418.418,0,0,1,.416-.554.757.757,0,0,1,.692.554.419.419,0,0,1-.416.554A.757.757,0,0,1,502.9,1338.341Z" transform="translate(-499.055 -1337.787)" fill="#e9f3fe"/>
          </g>
          <g id="Grupo_19" data-name="Grupo 19" transform="translate(11.71 15.53)">
            <path id="Trazado_60" data-name="Trazado 60" d="M515.99,1363.164h-9.66a.744.744,0,0,1-.678-.542h0a.411.411,0,0,1,.407-.542h9.66a.743.743,0,0,1,.678.542h0A.411.411,0,0,1,515.99,1363.164Z" transform="translate(-505.636 -1362.079)" fill="#afcdfb"/>
            <path id="Trazado_61" data-name="Trazado 61" d="M517.046,1367.4h-9.66a.743.743,0,0,1-.678-.542h0a.411.411,0,0,1,.407-.542h9.66a.744.744,0,0,1,.678.542h0A.411.411,0,0,1,517.046,1367.4Z" transform="translate(-506.176 -1364.245)" fill="#afcdfb"/>
            <path id="Trazado_62" data-name="Trazado 62" d="M518.1,1371.629h-9.66a.744.744,0,0,1-.678-.542h0a.411.411,0,0,1,.407-.542h9.66a.743.743,0,0,1,.678.542h0A.411.411,0,0,1,518.1,1371.629Z" transform="translate(-506.716 -1366.411)" fill="#afcdfb"/>
          </g>
          <g id="Grupo_20" data-name="Grupo 20" transform="translate(28.981 15.53)">
            <path id="Trazado_63" data-name="Trazado 63" d="M551.367,1363.164h-9.66a.743.743,0,0,1-.678-.542h0a.411.411,0,0,1,.407-.542h9.66a.744.744,0,0,1,.678.542h0A.411.411,0,0,1,551.367,1363.164Z" transform="translate(-541.013 -1362.079)" fill="#afcdfb"/>
            <path id="Trazado_64" data-name="Trazado 64" d="M552.422,1367.4h-9.66a.744.744,0,0,1-.678-.542h0a.411.411,0,0,1,.407-.542h9.66a.743.743,0,0,1,.678.542h0A.411.411,0,0,1,552.422,1367.4Z" transform="translate(-541.553 -1364.245)" fill="#afcdfb"/>
            <path id="Trazado_65" data-name="Trazado 65" d="M553.477,1371.629h-9.66a.743.743,0,0,1-.678-.542h0a.411.411,0,0,1,.407-.542h9.66a.743.743,0,0,1,.678.542h0A.411.411,0,0,1,553.477,1371.629Z" transform="translate(-542.093 -1366.411)" fill="#afcdfb"/>
          </g>
          <g id="Grupo_21" data-name="Grupo 21" transform="translate(45.592 15.53)">
            <path id="Trazado_66" data-name="Trazado 66" d="M585.391,1363.164h-9.659a.743.743,0,0,1-.678-.542h0a.411.411,0,0,1,.407-.542h9.659a.744.744,0,0,1,.678.542h0A.411.411,0,0,1,585.391,1363.164Z" transform="translate(-575.038 -1362.079)" fill="#afcdfb"/>
            <path id="Trazado_67" data-name="Trazado 67" d="M586.447,1367.4h-9.66a.743.743,0,0,1-.678-.542h0a.411.411,0,0,1,.407-.542h9.66a.744.744,0,0,1,.678.542h0A.411.411,0,0,1,586.447,1367.4Z" transform="translate(-575.578 -1364.245)" fill="#afcdfb"/>
            <path id="Trazado_68" data-name="Trazado 68" d="M587.5,1371.629h-9.66a.744.744,0,0,1-.678-.542h0a.411.411,0,0,1,.407-.542h9.66a.743.743,0,0,1,.678.542h0A.411.411,0,0,1,587.5,1371.629Z" transform="translate(-576.118 -1366.411)" fill="#afcdfb"/>
          </g>
          <g id="Grupo_27" data-name="Grupo 27" transform="translate(8.947 8.976)">
            <g id="Grupo_24" data-name="Grupo 24">
              <g id="Grupo_22" data-name="Grupo 22">
                <path id="Trazado_69" data-name="Trazado 69" d="M555.914,1349.292l.476,1.908a.482.482,0,0,1-.478.637H501.267a.872.872,0,0,1-.8-.637l-.476-1.908a.482.482,0,0,1,.477-.636h54.645A.873.873,0,0,1,555.914,1349.292Z" transform="translate(-499.977 -1348.656)" fill="#afcdfb"/>
                <path id="Trazado_70" data-name="Trazado 70" d="M539.211,1348.656l.793,3.181H501.267a.872.872,0,0,1-.8-.637l-.476-1.908a.482.482,0,0,1,.477-.636Z" transform="translate(-499.977 -1348.656)" fill="#f1a34f"/>
              </g>
              <g id="Grupo_23" data-name="Grupo 23" transform="translate(46.193 0.984)">
                <path id="Trazado_71" data-name="Trazado 71" d="M595.258,1350.961h-.6l-.061-.245h.926l.053.213-.309,1.073h-.32Z" transform="translate(-594.593 -1350.694)" fill="#699dee"/>
                <path id="Trazado_72" data-name="Trazado 72" d="M597.11,1351.336c-.093-.373.066-.665.408-.665a.819.819,0,0,1,.736.665c.093.373-.064.665-.408.665A.816.816,0,0,1,597.11,1351.336Zm.853,0c-.058-.233-.216-.41-.385-.41s-.237.171-.177.41.214.409.385.409S598.022,1351.573,597.963,1351.336Z" transform="translate(-595.868 -1350.671)" fill="#699dee"/>
                <path id="Trazado_73" data-name="Trazado 73" d="M599.686,1351.015a.238.238,0,0,1,.232-.329.422.422,0,0,1,.393.329.239.239,0,0,1-.232.329A.422.422,0,0,1,599.686,1351.015Zm.989-.314h.219l-.618,1.286h-.219Zm-.558.314c-.021-.086-.088-.162-.162-.162s-.1.074-.077.162.088.162.162.162S600.139,1351.1,600.117,1351.015Zm.522.658a.239.239,0,0,1,.232-.329.422.422,0,0,1,.392.329.239.239,0,0,1-.232.329A.423.423,0,0,1,600.64,1351.673Zm.432,0c-.021-.087-.088-.162-.162-.162s-.1.073-.077.162.088.161.161.161S601.093,1351.759,601.072,1351.673Z" transform="translate(-597.193 -1350.679)" fill="#699dee"/>
              </g>
            </g>
            <g id="Grupo_26" data-name="Grupo 26" transform="translate(4.158 14.979)">
              <path id="Trazado_74" data-name="Trazado 74" d="M561.868,1391.192h-4.844a1.682,1.682,0,0,1-1.538-1.231l-2.341-9.391a.93.93,0,0,1,.924-1.231h4.844a1.682,1.682,0,0,1,1.538,1.231l2.341,9.391A.93.93,0,0,1,561.868,1391.192Z" transform="translate(-531.326 -1379.338)" fill="#afcdfb"/>
              <path id="Trazado_75" data-name="Trazado 75" d="M579.041,1391.192H574.2a1.682,1.682,0,0,1-1.538-1.231l-2.341-9.391a.93.93,0,0,1,.924-1.231h4.844a1.682,1.682,0,0,1,1.538,1.231l2.341,9.391A.93.93,0,0,1,579.041,1391.192Z" transform="translate(-540.115 -1379.338)" fill="#afcdfb"/>
              <path id="Trazado_76" data-name="Trazado 76" d="M595.893,1391.192h-4.844a1.682,1.682,0,0,1-1.538-1.231l-2.342-9.391a.93.93,0,0,1,.925-1.231h4.844a1.682,1.682,0,0,1,1.538,1.231l2.341,9.391A.93.93,0,0,1,595.893,1391.192Z" transform="translate(-548.739 -1379.338)" fill="#afcdfb"/>
              <g id="Grupo_25" data-name="Grupo 25">
                <path id="Trazado_77" data-name="Trazado 77" d="M529.463,1391.192h-16.4a2.82,2.82,0,0,1-2.578-2.064l-1.927-7.726a1.559,1.559,0,0,1,1.55-2.064h16.4a2.82,2.82,0,0,1,2.579,2.064l1.926,7.726A1.559,1.559,0,0,1,529.463,1391.192Z" transform="translate(-508.495 -1379.338)" fill="#afcdfb"/>
                <path id="Trazado_78" data-name="Trazado 78" d="M528.272,1384.423H512.949a.644.644,0,0,1-.587-.47h0a.356.356,0,0,1,.353-.47h15.323a.644.644,0,0,1,.587.47h0A.356.356,0,0,1,528.272,1384.423Z" transform="translate(-510.467 -1381.46)" fill="#699dee"/>
                <path id="Trazado_79" data-name="Trazado 79" d="M529.195,1388.125H513.872a.644.644,0,0,1-.587-.47h0a.356.356,0,0,1,.352-.47h15.324a.644.644,0,0,1,.587.47h0A.356.356,0,0,1,529.195,1388.125Z" transform="translate(-510.939 -1383.354)" fill="#699dee"/>
                <path id="Trazado_80" data-name="Trazado 80" d="M530.118,1391.826H514.795a.645.645,0,0,1-.587-.47h0a.356.356,0,0,1,.352-.47h15.323a.644.644,0,0,1,.587.47h0A.357.357,0,0,1,530.118,1391.826Z" transform="translate(-511.411 -1385.248)" fill="#699dee"/>
                <path id="Trazado_81" data-name="Trazado 81" d="M519.443,1395.971h-3.615a.645.645,0,0,1-.587-.47h0a.356.356,0,0,1,.352-.47h3.615a.645.645,0,0,1,.587.47h0A.357.357,0,0,1,519.443,1395.971Z" transform="translate(-511.94 -1387.37)" fill="#699dee"/>
              </g>
            </g>
          </g>
        </g>
        <path id="Trazado_100" data-name="Trazado 100" d="M592.528,1456.27s4.3-3.333,6.45-2.285a5.3,5.3,0,0,1,2.66,2.285Z" transform="translate(-404.159 -1393.481)" fill="#1c468a"/>
        <path id="Trazado_101" data-name="Trazado 101" d="M315.616,1453.57s4.083-.932,5.374-.537,4.148,2.795,3.454,2.8-3.453-1.295-3.883-1.044-2.364,1.254-3.619.752A2.345,2.345,0,0,1,315.616,1453.57Z" transform="translate(-262.438 -1393.048)" fill="#ffb27d"/>
        <path id="Trazado_102" data-name="Trazado 102" d="M273.555,1394.876s-4,10.583-4.486,16.4c-.754,9.1-.716,14.79-.716,14.79s2.583.11,9.172,0,14.315,0,14.315,0,1.981-1.92-.72-3.393-14.069-4.164-13.785-5.3,4.2-16.938,4.2-16.938Z" transform="translate(-238.25 -1363.334)" fill="#6bb7bf"/>
        <path id="Trazado_103" data-name="Trazado 103" d="M319.58,1457.481s2.419-1.694,4.111-1.264a8.409,8.409,0,0,1,2.781,1.259Z" transform="translate(-264.467 -1394.692)" fill="#1c468a"/>
      </g>
      <g id="Grupo_42" data-name="Grupo 42" transform="translate(1315.471 1116.142)">
        <path id="Trazado_104" data-name="Trazado 104" d="M2506.3,1481.5h-57.949a3.344,3.344,0,0,1-3.334-3.334h0a3.344,3.344,0,0,1,3.334-3.335H2506.3a3.344,3.344,0,0,1,3.334,3.335h0A3.344,3.344,0,0,1,2506.3,1481.5Z" transform="translate(-2445.019 -1474.834)" fill="#e0b594"/>
        <g id="Grupo_39" data-name="Grupo 39" transform="translate(9.922 6.563)">
          <g id="Grupo_38" data-name="Grupo 38">
            <path id="Trazado_105" data-name="Trazado 105" d="M2478.192,1488.358l-1.836,7.168h0l-5.07,19.8-4.533,17.7a.806.806,0,0,1-.82.465c-.357,0-.633-.211-.586-.448l3.909-20.066,4.18-21.463.631-3.238Z" transform="translate(-2465.341 -1488.277)" fill="#c69d7f"/>
          </g>
          <path id="Trazado_106" data-name="Trazado 106" d="M2484.842,1495.526c.241-3.081-2.921-4.011-2.921-4.011l.631-3.238,4.125.081Z" transform="translate(-2473.826 -1488.277)" fill="#a0795f"/>
        </g>
        <g id="Grupo_41" data-name="Grupo 41" transform="translate(44.128 6.563)">
          <g id="Grupo_40" data-name="Grupo 40">
            <path id="Trazado_107" data-name="Trazado 107" d="M2535.406,1488.358l1.836,7.168h0l5.07,19.8,4.532,17.7a.808.808,0,0,0,.821.465c.357,0,.633-.211.586-.448l-3.909-20.066-4.18-21.463-.631-3.238Z" transform="translate(-2535.406 -1488.277)" fill="#c69d7f"/>
          </g>
          <path id="Trazado_108" data-name="Trazado 108" d="M2537.242,1495.526c-.241-3.081,2.92-4.011,2.92-4.011l-.631-3.238-4.125.081Z" transform="translate(-2535.406 -1488.277)" fill="#a0795f"/>
        </g>
      </g>
      <g id="Grupo_43" data-name="Grupo 43" transform="translate(1363.24 1104.312)">
        <path id="Trazado_110" data-name="Trazado 110" d="M2547.191,1454.065l-.109,2.5-.228,5.229-.1,2.409h-6.637l-.151-2.409-.326-5.229-.156-2.5Z" transform="translate(-2539.131 -1452.375)" fill="#c45446"/>
        <path id="Trazado_111" data-name="Trazado 111" d="M2546.953,1450.6h-7.862l-.324,1.69h8.407Z" transform="translate(-2538.767 -1450.603)" fill="#dde3f2"/>
        <path id="Trazado_112" data-name="Trazado 112" d="M2547.245,1459.189l-.229,5.23h-6.893l-.326-5.23Z" transform="translate(-2539.294 -1454.997)" fill="#e37970"/>
      </g>
      <g id="Grupo_45" data-name="Grupo 45" transform="translate(1312.047 1097.699)">
        <path id="Trazado_113" data-name="Trazado 113" d="M2478.484,1455.064l-.045,1.029-.034.757-.209,4.817-.019.412-.1,2.408h-6.637l-.151-2.408-.026-.412-.3-4.817-.048-.757-.084-1.367.018-.042a4.119,4.119,0,0,1,2.476.311c.929.591,1.943-.564,2.788-.226s.9.76,1.577.479A3.336,3.336,0,0,1,2478.484,1455.064Z" transform="translate(-2470.802 -1446.045)" fill="#e37970"/>
        <path id="Trazado_114" data-name="Trazado 114" d="M2478.489,1454.065l-.031.716-.045,1.029-.034.757-.209,4.817-.018.412-.1,2.409h-6.638l-.151-2.409-.025-.412-.3-4.817-.047-.757-.084-1.367-.024-.378Z" transform="translate(-2470.777 -1445.762)" fill="#e37970" opacity="0.2"/>
        <path id="Trazado_115" data-name="Trazado 115" d="M2478.559,1449.889c0-.039,0-.078,0-.118a3.863,3.863,0,0,0-7.727,0c0,.04,0,.079,0,.118Z" transform="translate(-2470.807 -1441.587)" fill="#e37970" opacity="0.2"/>
        <g id="Grupo_44" data-name="Grupo 44" transform="translate(2.885)">
          <path id="Trazado_116" data-name="Trazado 116" d="M2477.024,1454.889l-.338-.042c.021-.212,1.1-14.5,1.27-15.456a1.838,1.838,0,0,1,1.245-1.371l.018,0,5.405-.957.059.332-5.4.955a1.492,1.492,0,0,0-1,1.1C2478.122,1440.389,2477.029,1454.837,2477.024,1454.889Z" transform="translate(-2476.686 -1437.058)" fill="#c45446"/>
        </g>
        <path id="Trazado_117" data-name="Trazado 117" d="M2478.526,1457.639l-.033.757-.21,4.817h-6.937l-.3-4.817-.047-.757Z" transform="translate(-2470.89 -1447.591)" fill="#c45446"/>
      </g>
      <g id="Grupo_50" data-name="Grupo 50" transform="translate(1372.781 1045.142)">
        <path id="Trazado_119" data-name="Trazado 119" d="M2618.781,1457.93c2.341,8.461,19.637,13.441,38.558,16.362h70.6c17.018-8.058,16.994-17.667,18.36-44.2,2.82-54.807-26.994-81.266-40.29-76.9-.552.182-1.116.378-1.688.6-3.864,1.5-8.191,4.159-12.4,10.476,0,0-13.215,21.3-24.089,34-3.5,4.089-6.761,7.292-9.255,8.6a.586.586,0,0,1-.088.044c-.133.068-.262.129-.39.185-5.761,2.551-13.885,7.9-21.3,14.642h0C2625.292,1432.2,2615.481,1446,2618.781,1457.93Z" transform="translate(-2606.926 -1341.341)" fill="#f99746"/>
        <path id="Trazado_120" data-name="Trazado 120" d="M2656.365,1429.531c9.9,2.941,60.85,17.164,72.841,2.083,8.682-10.921,3.276-38.9-1.52-57a8.958,8.958,0,0,0-16.07-2.742l-.126.188s-13.215,21.3-24.089,34c-3.146,4.012-6.249,7.107-9.255,8.6a.6.6,0,0,1-.088.044c-.129.068-.262.129-.391.186C2671.905,1417.439,2663.782,1422.786,2656.365,1429.531Z" transform="translate(-2626.492 -1349.126)" fill="#ed7d2b"/>
        <g id="Grupo_49" data-name="Grupo 49">
          <path id="Trazado_121" data-name="Trazado 121" d="M2688.936,1390.412s-2.894,4.283-4.545,13.288c-1.446,7.886-2.714,10.8-4.8,12.415s-13.721,6.392-13.721,6.392l.87,2.038s17.051-2.322,18.967-5.172,9.217-19.687,8.65-23.565S2688.936,1390.412,2688.936,1390.412Z" transform="translate(-2631.356 -1360.628)" fill="#f4a269"/>
          <g id="Grupo_46" data-name="Grupo 46" transform="translate(0 112.066)">
            <path id="Trazado_122" data-name="Trazado 122" d="M2611,1570.732c.153,1.663-2.163,2.068-4.844,2.2s-1.871.682-5.545,1.348-5.148-.34-5.414-.836c-.237-.44,1.472-1.13,3.292-1.908.229-.1.458-.2.688-.3,2.049-.9,3.2-2.739,4.8-4.443,1.514-1.614,2.95-6.782,2.95-6.782l4.994-1.066s-1.4,4.651-1.889,6.637a6.153,6.153,0,0,0,.511,3.467A6.543,6.543,0,0,1,2611,1570.732Z" transform="translate(-2595.178 -1558.948)" fill="#ffb27d"/>
            <path id="Trazado_123" data-name="Trazado 123" d="M2606.159,1583.524c-2.682.133-1.871.682-5.545,1.348s-5.148-.34-5.414-.836c-.237-.44,1.472-1.13,3.292-1.908l.028.031a10.466,10.466,0,0,0,5.566.066c2.431-.66,4.782-2.113,6.456-2.582a6.545,6.545,0,0,1,.46,1.68C2611.156,1582.986,2608.84,1583.391,2606.159,1583.524Z" transform="translate(-2595.178 -1569.539)" fill="#c65447"/>
          </g>
          <path id="Trazado_124" data-name="Trazado 124" d="M2671.062,1457.87s-33.183-2.5-39.43,1.445-16.267,49.866-16.267,49.866a4.068,4.068,0,0,0,2,.645,16.744,16.744,0,0,0,4.114-.616s14.4-20.548,15.413-25.725.767-9.8,3.076-9.919,31.1,3.5,35.454-4.172a17.676,17.676,0,0,0,.754-15.266Z" transform="translate(-2605.509 -1393.237)" fill="#163560"/>
          <g id="Grupo_47" data-name="Grupo 47" transform="translate(12.698 117.396)">
            <path id="Trazado_125" data-name="Trazado 125" d="M2637.011,1581.648c.153,1.663-2.162,2.068-4.844,2.2s-1.871.682-5.546,1.348-5.147-.34-5.413-.836c-.237-.44,1.472-1.129,3.292-1.908.229-.1.458-.2.688-.3,2.05-.9,3.2-2.738,4.8-4.443,1.513-1.614,2.95-6.781,2.95-6.781l4.994-1.067s-1.4,4.651-1.889,6.636a6.141,6.141,0,0,0,.511,3.467A6.6,6.6,0,0,1,2637.011,1581.648Z" transform="translate(-2621.187 -1569.865)" fill="#ffb27d"/>
            <path id="Trazado_126" data-name="Trazado 126" d="M2632.168,1594.441c-2.682.134-1.871.683-5.546,1.348s-5.147-.34-5.413-.836c-.237-.44,1.472-1.129,3.292-1.908l.028.031a10.464,10.464,0,0,0,5.567.066c2.43-.659,4.781-2.112,6.456-2.582a6.6,6.6,0,0,1,.459,1.68C2637.165,1593.9,2634.85,1594.308,2632.168,1594.441Z" transform="translate(-2621.187 -1580.457)" fill="#c65447"/>
          </g>
          <path id="Trazado_127" data-name="Trazado 127" d="M2690.471,1466s-29.478,1.395-35.567,5.578-14.313,50.462-14.313,50.462a4.078,4.078,0,0,0,2.023.567,16.778,16.778,0,0,0,4.086-.776s13.588-21.093,14.4-26.305.385-9.818,2.688-10.031,31.212,2.287,35.264-5.549S2690.471,1466,2690.471,1466Z" transform="translate(-2618.42 -1399.315)" fill="#1c468a"/>
          <path id="Trazado_128" data-name="Trazado 128" d="M2718.172,1356.831a17.923,17.923,0,0,1-1.749-6.073c.064.323.907,4.427,2.655,6.665,6.828,3.859,20.322,17.363,20.255,20.1,0,0,3.917-7.785,3.99-7.835,0,0,7.456-10.9-2.6-16.193-5.109-2.689-5.341-6.561-5.36-9.937s-2.528-17.747-12.105-13.3a6.423,6.423,0,0,0-2.324-.444,1.941,1.941,0,0,1,.9.356,7.642,7.642,0,0,0-4.076,1.065C2714.293,1333.514,2712.294,1352.1,2718.172,1356.831Z" transform="translate(-2656.213 -1329.405)" fill="#b5453c"/>
          <path id="Trazado_129" data-name="Trazado 129" d="M2723.64,1374.3c.168-.07.364-.145.569-.22-.011-.435-.035-.9-.068-1.374-.149-2.155-.467-4.431-.467-4.431l7.172-1.924.427-.114a22.292,22.292,0,0,0,1.406,6.79c.742.034,1.214.078,1.214.078.121.43-3.047,6.984-7.232,7.154C2725.291,1380.317,2721.542,1375.18,2723.64,1374.3Z" transform="translate(-2660.604 -1348.257)" fill="#ffb27d"/>
          <path id="Trazado_130" data-name="Trazado 130" d="M2724.365,1368.4s.318,2.276.467,4.431c4.059-.386,5.961-4.24,6.705-6.355Z" transform="translate(-2661.294 -1348.376)" fill="#f4a269"/>
          <path id="Trazado_131" data-name="Trazado 131" d="M2726.687,1349.373a21.405,21.405,0,0,0,2.227-6.423c.228-2.08-1.327-9.631-8.912-8.023a10.424,10.424,0,0,0-4.206,1.919c-1.587,1.234-3.825,3.818-.7,10.289l.847,2.2Z" transform="translate(-2655.746 -1332.117)" fill="#b5453c"/>
          <path id="Trazado_132" data-name="Trazado 132" d="M2717.717,1357.464s9.633-.483,9.24-6.478.585-10.094-5.582-10.039-7.211,2.421-7.567,4.453S2715.2,1357.435,2717.717,1357.464Z" transform="translate(-2655.868 -1335.312)" fill="#ffb27d"/>
          <path id="Trazado_133" data-name="Trazado 133" d="M2720.359,1339.792s3.1,6.856,7.216,7.626,5.794-.43,5.794-.43a11.476,11.476,0,0,1-4.2-6.515S2722.123,1336.312,2720.359,1339.792Z" transform="translate(-2659.244 -1334.01)" fill="#b5453c"/>
          <path id="Trazado_134" data-name="Trazado 134" d="M2716.9,1341.239a8.514,8.514,0,0,0-2.241,3.26c-.378,1.558-.384,4.715-1.307,4.669,0,0-2.3-4.648-.254-7.5C2715.271,1338.643,2716.9,1341.239,2716.9,1341.239Z" transform="translate(-2655.092 -1334.931)" fill="#b5453c"/>
          <path id="Trazado_135" data-name="Trazado 135" d="M2701.923,1420.59c.78.932,3.214,1.219,5.816,1.647a17.469,17.469,0,0,1,5.727,1.659c3.473,2.039,14.819,8.93,18.144,8.616,1.289-.121,1.048-2.583.268-5.848-1.23-5.157-3.8-12.319-3.8-15.433a90.483,90.483,0,0,0-1.321-10.32c-.061-.371-.124-.744-.186-1.121-1.494-8.941-3.563-19.482-3.563-19.482s-2.307,5.035-6.8,5.035-3.451-3.839-3.451-3.839-4.1.482-5.071,1.526a40.138,40.138,0,0,0-3.915,6.787s-.1,1.566,3.777,2.312a50.882,50.882,0,0,0-1.056,7.084c-.083,2.093,1.428,8.645,1.863,12.72a7.521,7.521,0,0,1-.06,3.09,6,6,0,0,1-2.374,1.957C2703.722,1418.254,2701,1419.482,2701.923,1420.59Z" transform="translate(-2649.714 -1355.457)" fill="#1c468a"/>
          <path id="Trazado_136" data-name="Trazado 136" d="M2709.848,1434.548c-2.488,4.243,6.749,5.518,8.278,6.416,3.473,2.039,14.092,9.431,17.417,9.118,1.289-.121,1.048-2.583.267-5.848-1.23-5.158-3.8-12.319-3.8-15.433a90.49,90.49,0,0,0-1.321-10.32l-4-3.843s-4.289,11.086-8.378,12.9a34.4,34.4,0,0,1-6.025,1.961,7.522,7.522,0,0,1-.06,3.09A6,6,0,0,1,2709.848,1434.548Z" transform="translate(-2653.648 -1373.026)" fill="#163560"/>
          <path id="Trazado_137" data-name="Trazado 137" d="M2725.068,1386.53s3.422-2.078,6.731,1.865-2.352,32.126-7.255,33.574c-5.446,1.608-21.179-.258-21.179-.258l.3-2.458s16.749-3.212,17.445-4.106S2723.327,1386.985,2725.068,1386.53Z" transform="translate(-2650.546 -1358.361)" fill="#ffb27d"/>
          <path id="Trazado_138" data-name="Trazado 138" d="M2743.265,1380.307s7.029.634,9.07,2.945,2.638,8.576,2.638,8.576-6.189,5-13.646,3.058Z" transform="translate(-2669.975 -1355.456)" fill="#1c468a"/>
          <g id="Grupo_48" data-name="Grupo 48" transform="translate(16.542 51.993)">
            <rect id="Rectángulo_8" data-name="Rectángulo 8" width="9.283" height="1.097" transform="translate(34.633 13.771) rotate(-180)" fill="#9e332e"/>
            <path id="Trazado_139" data-name="Trazado 139" d="M2656.382,1449.524c-.091-.364-8.534-13.622-8.534-13.622h-18.787l9.423,13.265Z" transform="translate(-2629.061 -1435.902)" fill="#9e332e"/>
            <path id="Trazado_140" data-name="Trazado 140" d="M2655.592,1449.674c-.09-.363-8.562-13.772-8.562-13.772h-17.969l8.965,13.772Z" transform="translate(-2629.061 -1435.902)" fill="#b5453c"/>
            <path id="Trazado_141" data-name="Trazado 141" d="M2650.9,1449.078a1.5,1.5,0,0,0,1.307.972.67.67,0,0,0,.637-.972,1.5,1.5,0,0,0-1.308-.973A.67.67,0,0,0,2650.9,1449.078Z" transform="translate(-2640.208 -1442.147)" fill="#9e332e"/>
          </g>
          <path id="Trazado_142" data-name="Trazado 142" d="M2696.523,1452.955s-5.453-1.055-6.069-.792-4.046,3.343-3.694,3.958,1.759,1.056,3.342.527,5.013-.791,5.629-1.583A5.166,5.166,0,0,0,2696.523,1452.955Z" transform="translate(-2642.036 -1392.21)" fill="#ffb27d"/>
        </g>
      </g>
      <g id="Grupo_57" data-name="Grupo 57" transform="translate(1474.345 1087.229)">
        <g id="Grupo_52" data-name="Grupo 52" transform="translate(47.006 35.106)">
          <path id="Trazado_143" data-name="Trazado 143" d="M2960.955,1484.282s-6.152-7.177-.38-11.735c0,0,4.217-2.553,7.655-2.346,0,0-4.871,8.169-3.3,8.981s4.772-9.494,4.772-9.494,9.6-.93,12.682.554c0,0-8.2,6.713-6.475,7.112s10.588-6.189,10.588-6.189,8.93,1.52,8.454,6.967-3.553,7.13-4.906,6.985-9.264-3.165-9.436-2.057,4.59,4.73,7.925,4.9c0,0-6.3,6.944-10.481,4.94s-4.542-5.181-7.15-6.372-4.835-1.188-3.758.027,5.8,2.4,7.289,5.035,2.83,4.418-1.5,3.767-11.366-3.819-11.675-7.447Z" transform="translate(-2950.557 -1469.4)" fill="#82b378"/>
          <g id="Grupo_51" data-name="Grupo 51" transform="translate(0 8.837)">
            <path id="Trazado_144" data-name="Trazado 144" d="M2987.028,1490.553s-24.256-.934-29.612,6a17.554,17.554,0,0,1-4.831,6.779l-.568,1.548s4.2-4.432,5.707-4.7C2957.725,1500.182,2955.373,1491.588,2987.028,1490.553Z" transform="translate(-2947.018 -1490.511)" fill="#82b378"/>
            <path id="Trazado_145" data-name="Trazado 145" d="M2945.643,1520.293a15.23,15.23,0,0,0-5.568,10.73l.944.084s1.663-7.113,4.668-9.895S2945.643,1520.293,2945.643,1520.293Z" transform="translate(-2940.075 -1507.471)" fill="#82b378"/>
          </g>
        </g>
        <g id="Grupo_54" data-name="Grupo 54" transform="translate(0 15.621)">
          <path id="Trazado_146" data-name="Trazado 146" d="M2863.686,1448.2s9.786-5.48,5.219-12.917c0,0-3.653-4.566-7.567-5.74,0,0,2.087,11.09,0,11.351s-1.435-12.526-1.435-12.526-10.308-4.958-14.354-4.566c0,0,6.394,10.83,4.307,10.568s-9.264-11.221-9.264-11.221-10.568-1.957-12.265,4.306,1.044,9.394,2.61,9.786,11.612.261,11.351,1.566-7.046,3.392-10.83,2.219c0,0,4.175,10.307,9.656,9.785s7.176-3.914,10.569-4.176,5.872.653,4.175,1.566-7.437.3-10.178,2.629-4.958,3.765.131,4.809,14.222.391,16.049-3.523Z" transform="translate(-2827.791 -1422.855)" fill="#a8d29f"/>
          <g id="Grupo_53" data-name="Grupo 53" transform="translate(5.363 6.552)">
            <path id="Trazado_147" data-name="Trazado 147" d="M2840.6,1438.506s27.4,8.873,30.531,18.789a20.814,20.814,0,0,0,2.61,9.525v1.957s-2.871-6.655-4.437-7.568C2869.307,1461.21,2875.439,1452.6,2840.6,1438.506Z" transform="translate(-2840.602 -1438.506)" fill="#82b378"/>
            <path id="Trazado_148" data-name="Trazado 148" d="M2917.949,1504.449a18.07,18.07,0,0,1,1.816,14.228l-1.087-.292s1.056-8.6-1.156-12.93S2917.949,1504.449,2917.949,1504.449Z" transform="translate(-2884.808 -1476.135)" fill="#82b378"/>
          </g>
        </g>
        <g id="Grupo_56" data-name="Grupo 56" transform="translate(42.983)">
          <path id="Trazado_149" data-name="Trazado 149" d="M2938.946,1418.945s-12.9-7.223-6.88-17.027c0,0,4.816-6.02,9.976-7.568,0,0-2.752,14.619,0,14.964s1.892-16.512,1.892-16.512,13.588-6.536,18.92-6.019c0,0-8.427,14.275-5.676,13.932s12.212-14.792,12.212-14.792,13.931-2.58,16.167,5.676-1.375,12.383-3.44,12.9-15.307.344-14.963,2.064,9.288,4.472,14.276,2.924c0,0-5.5,13.588-12.728,12.9s-9.459-5.16-13.931-5.5-7.74.86-5.5,2.064,9.8.395,13.415,3.465,6.536,4.962-.171,6.339-18.748.516-21.156-4.644Z" transform="translate(-2930.466 -1385.54)" fill="#a8d29f"/>
          <g id="Grupo_55" data-name="Grupo 55" transform="translate(1.667 8.637)">
            <path id="Trazado_150" data-name="Trazado 150" d="M2986.193,1406.172s-36.119,11.7-40.247,24.767a27.442,27.442,0,0,1-3.44,12.555v2.58s3.784-8.771,5.848-9.976C2948.354,1436.1,2940.27,1424.748,2986.193,1406.172Z" transform="translate(-2939.133 -1406.172)" fill="#82b378"/>
            <path id="Trazado_151" data-name="Trazado 151" d="M2937.822,1493.1a23.824,23.824,0,0,0-2.395,18.755l1.433-.385s-1.391-11.341,1.523-17.045S2937.822,1493.1,2937.822,1493.1Z" transform="translate(-2934.449 -1455.774)" fill="#82b378"/>
          </g>
        </g>
        <path id="Trazado_152" data-name="Trazado 152" d="M2914.594,1558.372a25.268,25.268,0,0,0,25.268-25.268h-50.536A25.268,25.268,0,0,0,2914.594,1558.372Z" transform="translate(-2863.566 -1471.329)" fill="#f1a34f"/>
        <path id="Trazado_153" data-name="Trazado 153" d="M2925.089,1558.179a25.288,25.288,0,0,1-28.407-25.075h6.278A25.273,25.273,0,0,0,2925.089,1558.179Z" transform="translate(-2867.842 -1471.329)" fill="#ffb973"/>
        <path id="Trazado_154" data-name="Trazado 154" d="M2939.727,1592.205h-51.234a3.118,3.118,0,0,1,3.117-3.118h45a3.118,3.118,0,0,1,3.117,3.118Z" transform="translate(-2863.081 -1503.876)" fill="#f1a34f"/>
        <rect id="Rectángulo_9" data-name="Rectángulo 9" width="51.942" height="0.775" transform="translate(24.93 61.775)" fill="#d86713"/>
      </g>
    </g>
  </g>
</svg>
