<svg id="Layer_1" data-name="Layer 1" xmlns="http://www.w3.org/2000/svg" xmlns:xlink="http://www.w3.org/1999/xlink" viewBox="0 0 300 75.5" width="300px"><defs><linearGradient id="linear-gradient" x1="35.77" y1="39.13" x2="23.41" y2="5.19" gradientUnits="userSpaceOnUse"><stop offset="0" stop-color="#1eaecc"/><stop offset="0.39" stop-color="#20accb"/><stop offset="0.59" stop-color="#25a4c6"/><stop offset="0.74" stop-color="#2f97bd"/><stop offset="0.88" stop-color="#3d84b1"/><stop offset="0.94" stop-color="#4578aa"/></linearGradient><linearGradient id="linear-gradient-2" x1="37.57" y1="39.6" x2="50.05" y2="73.89" gradientUnits="userSpaceOnUse"><stop offset="0" stop-color="#8bc53f"/><stop offset="0.38" stop-color="#93c83f"/><stop offset="0.63" stop-color="#80bb41"/><stop offset="1" stop-color="#5ea444"/></linearGradient></defs><title>180220_logo_Colsanitas</title><g id="_Group_" data-name="&lt;Group&gt;"><g id="_Group_2" data-name="&lt;Group&gt;"><g id="_Group_3" data-name="&lt;Group&gt;"><g id="_Group_4" data-name="&lt;Group&gt;"><path id="_Compound_Path_" data-name="&lt;Compound Path&gt;" d="M131.9,70.7V35.9h5.9V70.7Z" fill="#002f87"/><path id="_Compound_Path_2" data-name="&lt;Compound Path&gt;" d="M238.7,36h5.8v7H251v4.5h-6.5V62.9a3.3,3.3,0,0,0,.9,2.7,4.1,4.1,0,0,0,2.7.8h1.2l1-.2.4,4.4-1.9.5-2.5.2q-3.9,0-5.9-2.1a8.5,8.5,0,0,1-1.9-6Z" fill="#002f87"/></g></g><g id="_Group_5" data-name="&lt;Group&gt;"><path id="_Compound_Path_3" data-name="&lt;Compound Path&gt;" d="M73.5,53q0-8.8,3.8-13.2t11.9-4.4a22.4,22.4,0,0,1,4.4.4,17.6,17.6,0,0,1,3.7,1.1l-.7,5.6-3.2-.9a19.4,19.4,0,0,0-3.9-.4,13.7,13.7,0,0,0-4.3.6,6.1,6.1,0,0,0-2.9,2,8.8,8.8,0,0,0-1.6,3.6,26.1,26.1,0,0,0-.5,5.6,29.2,29.2,0,0,0,.5,5.9,9.1,9.1,0,0,0,1.7,3.8,6.2,6.2,0,0,0,3,2,13.7,13.7,0,0,0,4.3.6,16.2,16.2,0,0,0,3.8-.4A18.4,18.4,0,0,0,96.7,64l.7,5.4a19.6,19.6,0,0,1-4,1.4,19.1,19.1,0,0,1-4.6.6q-7.8,0-11.6-4.5T73.5,53Z" fill="#002f87"/><path id="_Compound_Path_4" data-name="&lt;Compound Path&gt;" d="M100.8,57a25.8,25.8,0,0,1,.7-6.6,11.4,11.4,0,0,1,2.3-4.5,8.9,8.9,0,0,1,3.9-2.6,19.3,19.3,0,0,1,11.2,0,8.8,8.8,0,0,1,3.9,2.6,11.4,11.4,0,0,1,2.2,4.5,26.5,26.5,0,0,1,.7,6.6,25.9,25.9,0,0,1-.7,6.6,11.2,11.2,0,0,1-2.2,4.5,8.7,8.7,0,0,1-3.9,2.6,19.7,19.7,0,0,1-11.2,0,8.9,8.9,0,0,1-3.9-2.6,11.3,11.3,0,0,1-2.3-4.5A25.1,25.1,0,0,1,100.8,57Zm6.1,0a24.8,24.8,0,0,0,.4,4.6,7.8,7.8,0,0,0,1.1,2.9,4.2,4.2,0,0,0,2,1.6,8.3,8.3,0,0,0,2.9.5,8.1,8.1,0,0,0,2.9-.5,4.1,4.1,0,0,0,1.9-1.6,8,8,0,0,0,1.1-3,25.7,25.7,0,0,0,.3-4.6,25.9,25.9,0,0,0-.3-4.6,7.9,7.9,0,0,0-1.1-2.9,4.1,4.1,0,0,0-1.9-1.6,8.1,8.1,0,0,0-2.9-.5,8.3,8.3,0,0,0-2.9.5,4.2,4.2,0,0,0-2,1.6,7.7,7.7,0,0,0-1.1,2.9A25,25,0,0,0,106.9,57Z" fill="#002f87"/><path id="_Compound_Path_5" data-name="&lt;Compound Path&gt;" d="M143.8,50.6a7.6,7.6,0,0,1,2.6-6q2.6-2.3,7.6-2.3a19,19,0,0,1,7.7,1.6l-.5,4.9a16.8,16.8,0,0,0-3.7-1.1,20.9,20.9,0,0,0-3.6-.3,5.9,5.9,0,0,0-3.3.8,2.5,2.5,0,0,0-1.2,2.2,2.2,2.2,0,0,0,1,1.9,9.8,9.8,0,0,0,2.5,1.2l3.2,1a13.8,13.8,0,0,1,3.2,1.4,8,8,0,0,1,2.5,2.4,6.9,6.9,0,0,1,1,3.9,11.3,11.3,0,0,1-.6,3.7,6.9,6.9,0,0,1-1.8,2.8,8.6,8.6,0,0,1-3.2,1.8,14.7,14.7,0,0,1-4.7.7,21.1,21.1,0,0,1-4.7-.5,13.3,13.3,0,0,1-4-1.6l.7-5a12.5,12.5,0,0,0,3.8,1.6,17,17,0,0,0,4.1.6,5.4,5.4,0,0,0,3.7-1,3.3,3.3,0,0,0,1.1-2.5,2.5,2.5,0,0,0-1-2.1,9.6,9.6,0,0,0-2.5-1.3l-3.3-1.1a14.9,14.9,0,0,1-3.3-1.4,7.8,7.8,0,0,1-2.5-2.4A6.9,6.9,0,0,1,143.8,50.6Z" fill="#002f87"/><path id="_Compound_Path_6" data-name="&lt;Compound Path&gt;" d="M194.6,70.7V43l4.2-.3.9,2.7a10.6,10.6,0,0,1,3.6-2.3,12.2,12.2,0,0,1,4.3-.8,9.4,9.4,0,0,1,7,2.6q2.6,2.6,2.6,7.7V70.7h-5.9v-18a4.8,4.8,0,0,0-1.4-3.8,6,6,0,0,0-4-1.2,7.8,7.8,0,0,0-3.1.7,5.7,5.7,0,0,0-2.4,1.9V70.7Z" fill="#002f87"/><path id="_Compound_Path_7" data-name="&lt;Compound Path&gt;" d="M224,36.4q0-2.9,3.5-2.8t3.5,2.8q0,2.8-3.6,2.8a4.6,4.6,0,0,1-2.6-.6A2.5,2.5,0,0,1,224,36.4Zm.5,34.4V43l5.9-.3v28Z" fill="#002f87"/><path id="_Compound_Path_8" data-name="&lt;Compound Path&gt;" d="M281,50.6a7.6,7.6,0,0,1,2.6-6q2.6-2.3,7.6-2.3a19,19,0,0,1,7.7,1.6l-.5,4.9a16.8,16.8,0,0,0-3.7-1.1,20.9,20.9,0,0,0-3.6-.3,5.9,5.9,0,0,0-3.3.8,2.5,2.5,0,0,0-1.2,2.2,2.2,2.2,0,0,0,1,1.9,9.8,9.8,0,0,0,2.5,1.2l3.2,1a13.8,13.8,0,0,1,3.2,1.4,7.9,7.9,0,0,1,2.5,2.4,6.9,6.9,0,0,1,1,3.9,11.2,11.2,0,0,1-.6,3.7,6.9,6.9,0,0,1-1.8,2.8,8.6,8.6,0,0,1-3.2,1.8,14.7,14.7,0,0,1-4.7.7,21.1,21.1,0,0,1-4.7-.5,13.3,13.3,0,0,1-4-1.6l.7-5a12.5,12.5,0,0,0,3.8,1.6,17,17,0,0,0,4.1.6,5.4,5.4,0,0,0,3.7-1,3.3,3.3,0,0,0,1.1-2.5,2.5,2.5,0,0,0-1-2.1,9.7,9.7,0,0,0-2.5-1.3l-3.3-1.1a14.9,14.9,0,0,1-3.3-1.4,7.7,7.7,0,0,1-2.5-2.4A6.9,6.9,0,0,1,281,50.6Z" fill="#002f87"/></g></g><g id="_Group_6" data-name="&lt;Group&gt;"><path id="_Path_" data-name="&lt;Path&gt;" d="M188.1,48.4a7.3,7.3,0,0,0-5.1-5.3,16.4,16.4,0,0,0-4.9-.6,22.9,22.9,0,0,0-9.3,1.8l.5,4.8a20.8,20.8,0,0,1,3.7-1.2,19.5,19.5,0,0,1,4-.4q3.1,0,4.5,1.1a4.6,4.6,0,0,1,1.3,3.8V62.5a2.7,2.7,0,0,1-.5,1.4,4.4,4.4,0,0,1-1.2,1.2,6.9,6.9,0,0,1-1.8.9,6.6,6.6,0,0,1-2.1.3,5.5,5.5,0,0,1-3.4-1,4,4,0,0,1-1.3-3.4,4,4,0,0,1,1.3-3.2,6.4,6.4,0,0,1,4.2-1.1,9.6,9.6,0,0,1,2.5.3h.2V54l-.8-.2-3.1-.3q-4.9,0-7.5,2.3a8,8,0,0,0-2.6,6.2q0,4.6,2.4,6.8a8.9,8.9,0,0,0,6.3,2.2,10.9,10.9,0,0,0,4.5-.9,8.7,8.7,0,0,0,3.3-2.5h.1l.5,3h4.5V53.2A18.2,18.2,0,0,0,188.1,48.4Z" fill="#002f87"/></g><g id="_Group_7" data-name="&lt;Group&gt;"><path id="_Path_2" data-name="&lt;Path&gt;" d="M275.5,48.4a7.3,7.3,0,0,0-5.1-5.3,16.4,16.4,0,0,0-4.9-.6,22.9,22.9,0,0,0-9.3,1.8l.5,4.8a20.8,20.8,0,0,1,3.7-1.2,19.5,19.5,0,0,1,4-.4q3.1,0,4.5,1.1a4.6,4.6,0,0,1,1.3,3.8V62.5a2.7,2.7,0,0,1-.5,1.4,4.4,4.4,0,0,1-1.2,1.2,6.9,6.9,0,0,1-1.8.9,6.6,6.6,0,0,1-2.1.3,5.5,5.5,0,0,1-3.4-1,4,4,0,0,1-1.3-3.4,4,4,0,0,1,1.3-3.2,6.4,6.4,0,0,1,4.2-1.1,9.7,9.7,0,0,1,2.5.3h.2V54l-.8-.2-3.1-.3q-4.9,0-7.5,2.3a8,8,0,0,0-2.6,6.2q0,4.6,2.4,6.8a8.9,8.9,0,0,0,6.3,2.2,10.9,10.9,0,0,0,4.5-.9,8.7,8.7,0,0,0,3.3-2.5h.1l.5,3h4.5V53.2A18.2,18.2,0,0,0,275.5,48.4Z" fill="#002f87"/></g></g><path d="M8.6,47h0Z" fill="none"/><path d="M48.9,10.3C48.2,3.6,44.6,0,39.7,0a15,15,0,0,0-7.6,2.4c-5.8,3.5-9.8,8.5-12.9,14.3-1.6,2.9-2.5,5-4,8.4l1.2,1.8C18.2,29.4,25.4,42,25.4,42L13.8,45.4l22.9-6.7a5.4,5.4,0,0,0,2.7-1.4C45.7,29.4,49.9,20.6,48.9,10.3Z" fill="url(#linear-gradient)"/><path d="M16.4,26.9l-1.2-1.8-.3.6C14.3,27.2,7.3,47,7.3,47H8.6l5.2-1.5L25.4,42S18.2,29.4,16.4,26.9Z" fill="#007bc1"/><path d="M9.2,46.8l4.6-1.4L8.6,47Z" fill="#007bc1"/><path d="M15,25.7l.3-.6c-2-3-5.1-7.6-7.1-9.6S1.4,12.9.2,18.9A10.3,10.3,0,0,0,0,20.6c-.2,8.9,1.5,15.9,5,24.8A2.9,2.9,0,0,0,8.6,47H7.3S14.3,27.2,15,25.7Z" fill="#4192cf"/><path d="M26.3,58.7c0-2-.5-14.8-.5-14.8l-5.8,1.7-9.7,2.8-1.9,1L25.7,60.7l.6.4C26.3,60.1,26.3,59.2,26.3,58.7Z" fill="#00a771"/><path d="M8.3,49.4l1.9-1c3.2-.9-.7.1-.7.1C8,49.1,7,50,7.3,51.8,9.7,58.9,12,65.8,17,72L18.1,73c4.1,3.6,6.8,3.5,7.8-1.8a70.4,70.4,0,0,0,.4-10.1l-.6-.4Z" fill="#52bd98"/><path d="M62.8,56.8C58.3,47.9,50.4,43,41.3,39.9h-.9a7.6,7.6,0,0,0-2,.4L25.7,43.9s.5,12.8.5,14.8c0,.5,0,1.4,0,2.4,3.2,2.1,6.7,4.1,9.5,5.7,5.5,3.1,11.3,5.1,17.7,4.9C62.9,71.4,67.1,65.1,62.8,56.8Z" fill="url(#linear-gradient-2)"/></svg>