<svg id="Capa_1" data-name="Capa 1" xmlns="http://www.w3.org/2000/svg" xmlns:xlink="http://www.w3.org/1999/xlink" viewBox="0 0 219 49.6" width="219px"><defs><linearGradient id="Degradado_sin_nombre_32" x1="23.49" y1="25.71" x2="15.38" y2="3.41" gradientUnits="userSpaceOnUse"><stop offset="0" stop-color="#0b99de"/><stop offset="0.39" stop-color="#0b97dc"/><stop offset="0.6" stop-color="#0a92d4"/><stop offset="0.76" stop-color="#0889c7"/><stop offset="0.9" stop-color="#067cb4"/><stop offset="0.94" stop-color="#0577ac"/></linearGradient><linearGradient id="Degradado_sin_nombre_39" x1="24.7" y1="26.02" x2="32.89" y2="48.54" gradientUnits="userSpaceOnUse"><stop offset="0.03" stop-color="#65c1ea"/><stop offset="0.22" stop-color="#60bde7"/><stop offset="0.43" stop-color="#52b1dd"/><stop offset="0.66" stop-color="#3b9ece"/><stop offset="0.9" stop-color="#1b83b8"/><stop offset="1" stop-color="#0b76ad"/></linearGradient></defs><title>logo_epsNuevo</title><path d="M66.4,44.1v2H51.7V22.3h14v2H53.8v8.5H64.2v1.8H53.8v9.6Z" fill="#0098db"/><path d="M78.5,36.5H73v9.6H70.9V22.3h7.6c5.4,0,7.7,2.1,7.7,7.1S84,36.5,78.5,36.5Zm0-12.3H73V34.7h5.5c3.7,0,5.6-1.3,5.6-5.3S82.3,24.2,78.5,24.2Z" fill="#0098db"/><path d="M95.8,46.6A12.7,12.7,0,0,1,89,44.7l.4-2a11.2,11.2,0,0,0,6.4,1.8c3.8,0,5.7-1.8,5.7-4.9,0-6.4-12.2-3.6-12.2-11.4,0-3.6,2.3-6.3,7.4-6.3a14.4,14.4,0,0,1,6.1,1.3l-.4,1.9a13.9,13.9,0,0,0-5.6-1.2c-3.9,0-5.5,2-5.5,4.3,0,6.1,12.3,3.2,12.3,11.4C103.5,43.9,100.9,46.6,95.8,46.6Z" fill="#0098db"/><path d="M111,44.7l.6-3.8a14.4,14.4,0,0,0,3.1,1.3,11.9,11.9,0,0,0,3.3.5,5.1,5.1,0,0,0,3.2-.8,2.9,2.9,0,0,0,1-2.4,2.1,2.1,0,0,0-.8-1.8,8.2,8.2,0,0,0-2.1-1.2l-2.7-1a12.2,12.2,0,0,1-2.7-1.3,6.9,6.9,0,0,1-2-2,5.6,5.6,0,0,1-.8-3.2,7.6,7.6,0,0,1,.5-2.7,5.8,5.8,0,0,1,1.5-2.2,7.2,7.2,0,0,1,2.5-1.5,10.8,10.8,0,0,1,3.6-.5,17.3,17.3,0,0,1,3.4.3,13.3,13.3,0,0,1,3,.9l-.6,3.7-2.8-.8-2.8-.3-2,.2a3.6,3.6,0,0,0-1.3.6,2.1,2.1,0,0,0-.7.9,2.8,2.8,0,0,0-.2,1,2,2,0,0,0,.8,1.7,8.9,8.9,0,0,0,2.1,1.1l2.7,1a11.5,11.5,0,0,1,2.7,1.3,7,7,0,0,1,2,2,5.7,5.7,0,0,1,.8,3.2,6.9,6.9,0,0,1-2.2,5.4,8.9,8.9,0,0,1-6.2,2,14.7,14.7,0,0,1-3.8-.5A14.2,14.2,0,0,1,111,44.7Z" fill="#0098db"/><g id="_Group_" data-name="&lt;Group&gt;"><g id="_Group_2" data-name="&lt;Group&gt;"><path id="_Compound_Path_" data-name="&lt;Compound Path&gt;" d="M177.6,22.5h3.9v4.7h4.4v3h-4.4V40.7a2.2,2.2,0,0,0,.6,1.8,2.7,2.7,0,0,0,1.8.5h.8l.7-.2.3,2.9-1.3.3h-1.7a5.1,5.1,0,0,1-3.9-1.4,5.8,5.8,0,0,1-1.3-4Z" fill="#0098db"/></g></g><g id="_Group_3" data-name="&lt;Group&gt;"><path id="_Compound_Path_2" data-name="&lt;Compound Path&gt;" d="M147.9,45.9V27.2l2.8-.2.6,1.8a7.2,7.2,0,0,1,2.4-1.5,8.2,8.2,0,0,1,2.9-.5,6.3,6.3,0,0,1,4.7,1.8,7.1,7.1,0,0,1,1.7,5.2V45.9h-4V33.8a3.2,3.2,0,0,0-.9-2.6,4,4,0,0,0-2.7-.8,5.2,5.2,0,0,0-2.1.5,3.8,3.8,0,0,0-1.6,1.3V45.9Z" fill="#0098db"/><path id="_Compound_Path_3" data-name="&lt;Compound Path&gt;" d="M167.8,22.7q0-1.9,2.4-1.9t2.4,1.9q0,1.9-2.4,1.9a3.1,3.1,0,0,1-1.8-.4A1.7,1.7,0,0,1,167.8,22.7Zm.3,23.2V27.2l4-.2V45.9Z" fill="#0098db"/><path id="_Compound_Path_4" data-name="&lt;Compound Path&gt;" d="M206.2,32.4a5.1,5.1,0,0,1,1.7-4,7.5,7.5,0,0,1,5.2-1.5,12.8,12.8,0,0,1,5.2,1.1l-.3,3.3a11.3,11.3,0,0,0-2.5-.7l-2.4-.2a4,4,0,0,0-2.2.5,1.7,1.7,0,0,0-.8,1.5,1.5,1.5,0,0,0,.7,1.3l1.7.8,2.2.7a9.3,9.3,0,0,1,2.2,1,5.3,5.3,0,0,1,1.7,1.6,4.7,4.7,0,0,1,.7,2.6,7.6,7.6,0,0,1-.4,2.5,4.6,4.6,0,0,1-1.2,1.9,5.8,5.8,0,0,1-2.1,1.2,9.9,9.9,0,0,1-3.1.4,14.2,14.2,0,0,1-3.2-.3,9,9,0,0,1-2.7-1.1l.5-3.3a8.4,8.4,0,0,0,2.6,1.1,11.4,11.4,0,0,0,2.8.4,3.7,3.7,0,0,0,2.5-.7,2.2,2.2,0,0,0,.8-1.7,1.7,1.7,0,0,0-.7-1.4,6.5,6.5,0,0,0-1.7-.9l-2.2-.7a10,10,0,0,1-2.2-1,5.2,5.2,0,0,1-1.7-1.6A4.7,4.7,0,0,1,206.2,32.4Z" fill="#0098db"/></g><g id="_Group_4" data-name="&lt;Group&gt;"><path id="_Path_" data-name="&lt;Path&gt;" d="M143.6,30.8a4.9,4.9,0,0,0-3.4-3.6,11,11,0,0,0-3.3-.4,15.5,15.5,0,0,0-6.3,1.2l.4,3.3,2.5-.8,2.7-.3a4.7,4.7,0,0,1,3,.7,3.1,3.1,0,0,1,.9,2.5v6.9a1.8,1.8,0,0,1-.3,1,3,3,0,0,1-.8.8l-1.2.6-1.4.2a3.7,3.7,0,0,1-2.3-.7,2.7,2.7,0,0,1-.9-2.3,2.7,2.7,0,0,1,.9-2.2,4.3,4.3,0,0,1,2.8-.7l1.7.2h.2V34.6h-.5l-2.1-.2a7.3,7.3,0,0,0-5.1,1.6,5.4,5.4,0,0,0-1.7,4.2,5.4,5.4,0,0,0,5.8,6.1,7.3,7.3,0,0,0,3.1-.6,5.9,5.9,0,0,0,2.2-1.7h.1l.4,2h3V34.1A12.3,12.3,0,0,0,143.6,30.8Z" fill="#0098db"/></g><g id="_Group_5" data-name="&lt;Group&gt;"><path id="_Path_2" data-name="&lt;Path&gt;" d="M202.5,30.8a4.9,4.9,0,0,0-3.4-3.6,11,11,0,0,0-3.3-.4,15.5,15.5,0,0,0-6.3,1.2l.4,3.3,2.5-.8,2.7-.3a4.7,4.7,0,0,1,3,.7,3.1,3.1,0,0,1,.9,2.5v6.9a1.8,1.8,0,0,1-.3,1,3,3,0,0,1-.8.8l-1.2.6-1.4.2a3.7,3.7,0,0,1-2.3-.7,2.7,2.7,0,0,1-.9-2.3,2.7,2.7,0,0,1,.9-2.2,4.3,4.3,0,0,1,2.8-.7l1.7.2h.2V34.6h-.5l-2.1-.2a7.3,7.3,0,0,0-5.1,1.6,5.4,5.4,0,0,0-1.7,4.2,5.4,5.4,0,0,0,5.8,6.1,7.3,7.3,0,0,0,3.1-.6,5.8,5.8,0,0,0,2.2-1.7h.1l.4,2h3V34.1A12.3,12.3,0,0,0,202.5,30.8Z" fill="#0098db"/></g><path d="M5.6,30.9h0Z" fill="none"/><path d="M32.1,6.7c-.4-4.4-2.8-6.7-6-6.7a9.8,9.8,0,0,0-5,1.6A23.1,23.1,0,0,0,12.7,11c-1,1.9-1.6,3.3-2.6,5.5l.8,1.2c1.2,1.7,5.9,9.9,5.9,9.9L9.1,29.8l15-4.4a3.6,3.6,0,0,0,1.7-.9C30,19.3,32.8,13.5,32.1,6.7Z" fill="url(#Degradado_sin_nombre_32)"/><path d="M10.8,17.6,10,16.5l-.2.4c-.5,1-5.1,14-5.1,14h.9l3.4-1,7.6-2.3S12,19.3,10.8,17.6Z" fill="#077bbf"/><path d="M6.1,30.8l3-.9-3.4,1Z" fill="#007bc1"/><path d="M9.8,16.9l.2-.4a46.2,46.2,0,0,0-4.7-6.3C3.4,8.4.9,8.5.2,12.4A6.7,6.7,0,0,0,0,13.5C-.1,19.4,1,24,3.3,29.8a1.9,1.9,0,0,0,2.4,1H4.8S9.4,17.9,9.8,16.9Z" fill="#099add"/><path d="M41.3,37.3c-3-5.8-8.1-9-14.1-11.1h-.6l-1.3.2-8.3,2.5s.3,8.4.3,9.7,0,.9,0,1.6c2.1,1.4,4.4,2.7,6.2,3.7a22.1,22.1,0,0,0,11.6,3.2C41.3,46.9,44.1,42.8,41.3,37.3Z" fill="url(#Degradado_sin_nombre_39)"/><path d="M17.3,38.6c0-1.3-.3-9.7-.3-9.7l-3.8,1.1L6.7,31.8l-1.3.7,11.4,7.5.4.2C17.3,39.5,17.3,38.9,17.3,38.6Z" fill="#099adc"/><path d="M5.5,32.4l1.3-.7c2.1-.6-.4.1-.4.1s-1.7,1-1.5,2.2c1.5,4.6,3,9.2,6.3,13.2l.7.7c2.7,2.4,4.5,2.3,5.1-1.2a46.2,46.2,0,0,0,.3-6.6l-.4-.2Z" fill="#67c0ec"/></svg>