<?xml version="1.0" encoding="utf-8"?>
<!-- Generator: Adobe Illustrator 16.0.0, SVG Export Plug-In . SVG Version: 6.00 Build 0)  -->
<!DOCTYPE svg PUBLIC "-//W3C//DTD SVG 1.1//EN" "http://www.w3.org/Graphics/SVG/1.1/DTD/svg11.dtd">
<svg version="1.1" id="Capa_1" xmlns="http://www.w3.org/2000/svg" xmlns:xlink="http://www.w3.org/1999/xlink" x="0px" y="0px"
	 width="258.1px" height="46.5px" viewBox="0 0 258.1 46.5" style="enable-background:new 0 0 258.1 46.5;" xml:space="preserve">
<style type="text/css">
<![CDATA[
	.st0{fill:#7CBB97;}
	.st1{clip-path:url(#SVGID_2_);fill:url(#SVGID_3_);}
	.st2{font-size:27.0029;}
	.st3{fill:#5EA473;}
	.st4{clip-path:url(#SVGID_5_);fill:url(#SVGID_6_);}
	.st5{font-family:'ClanPro-Book';}
	.st6{fill:#6190CB;}
	.st7{fill:#003383;}
	.st8{fill:#457ABC;}
]]>
</style>
<g>
	<text transform="matrix(1 0 0 1 0 40.334)"><tspan x="0" y="0" class="st7 st5 st2">C</tspan><tspan x="15.9" y="0" class="st7 st5 st2">l</tspan><tspan x="23.3" y="0" class="st7 st5 st2">ín</tspan><tspan x="47.1" y="0" class="st7 st5 st2">i</tspan><tspan x="54.8" y="0" class="st7 st5 st2">c</tspan><tspan x="67.7" y="0" class="st7 st5 st2">a</tspan></text>
	<polygon class="st7" points="162.4,40.2 162.4,20.4 165.7,20.4 165.7,40.2 	"/>
	<path class="st7" d="M223.1,20.5l3.3,0v4h3.7V27h-3.7v8.8c0,0.7,0.2,1.2,0.5,1.5c0.4,0.3,0.9,0.5,1.5,0.5c0.2,0,0.4,0,0.7-0.1
		s0.4-0.1,0.6-0.1l0.2,2.5c-0.3,0.1-0.6,0.2-1.1,0.3c-0.4,0.1-0.9,0.1-1.4,0.1c-1.5,0-2.6-0.4-3.3-1.2c-0.7-0.8-1.1-1.9-1.1-3.4
		L223.1,20.5z"/>
	<path class="st7" d="M129.1,30.2c0-3.4,0.7-5.9,2.2-7.5c1.4-1.7,3.7-2.5,6.8-2.5c0.8,0,1.6,0.1,2.5,0.3c0.8,0.2,1.5,0.4,2.1,0.6
		l-0.4,3.2c-0.5-0.2-1.1-0.4-1.8-0.5c-0.7-0.1-1.4-0.2-2.2-0.2c-1,0-1.8,0.1-2.5,0.3c-0.7,0.2-1.2,0.6-1.6,1.1
		c-0.4,0.5-0.7,1.2-0.9,2.1c-0.2,0.9-0.3,1.9-0.3,3.2c0,1.4,0.1,2.5,0.3,3.4c0.2,0.9,0.5,1.6,0.9,2.2c0.4,0.5,1,0.9,1.7,1.2
		c0.7,0.2,1.5,0.3,2.5,0.3c0.8,0,1.5-0.1,2.2-0.2c0.7-0.2,1.3-0.4,1.8-0.6l0.4,3.1c-0.7,0.3-1.4,0.6-2.3,0.8
		c-0.9,0.2-1.7,0.3-2.6,0.3c-3,0-5.2-0.9-6.6-2.5C129.8,36.4,129.1,33.8,129.1,30.2"/>
	<path class="st7" d="M144.6,32.4c0-1.5,0.1-2.7,0.4-3.8c0.3-1.1,0.7-1.9,1.3-2.6c0.6-0.7,1.3-1.2,2.2-1.5c0.9-0.3,2-0.5,3.2-0.5
		s2.3,0.2,3.2,0.5c0.9,0.3,1.6,0.8,2.2,1.5c0.6,0.7,1,1.5,1.3,2.6c0.3,1.1,0.4,2.3,0.4,3.8c0,1.5-0.1,2.7-0.4,3.8
		c-0.3,1-0.7,1.9-1.3,2.5c-0.6,0.7-1.3,1.2-2.2,1.5c-0.9,0.3-2,0.5-3.2,0.5s-2.3-0.2-3.2-0.5c-0.9-0.3-1.6-0.8-2.2-1.5
		c-0.6-0.7-1-1.5-1.3-2.5S144.6,33.9,144.6,32.4 M148.1,32.4c0,1,0.1,1.9,0.2,2.6c0.1,0.7,0.3,1.3,0.6,1.7c0.3,0.4,0.7,0.7,1.1,0.9
		c0.5,0.2,1,0.3,1.7,0.3c0.7,0,1.2-0.1,1.7-0.3c0.5-0.2,0.8-0.5,1.1-0.9c0.3-0.4,0.5-1,0.6-1.7c0.1-0.7,0.2-1.6,0.2-2.6
		c0-1-0.1-1.9-0.2-2.6c-0.1-0.7-0.3-1.3-0.6-1.7c-0.3-0.4-0.7-0.7-1.1-0.9c-0.5-0.2-1-0.3-1.7-0.3c-0.7,0-1.2,0.1-1.7,0.3
		c-0.5,0.2-0.8,0.5-1.1,0.9c-0.3,0.4-0.5,1-0.6,1.7C148.2,30.5,148.1,31.4,148.1,32.4"/>
	<path class="st7" d="M169.1,28.8c0-1.4,0.5-2.5,1.5-3.4c1-0.9,2.4-1.3,4.4-1.3c1.6,0,3,0.3,4.4,0.9l-0.3,2.8
		c-0.7-0.3-1.4-0.5-2.1-0.6c-0.7-0.1-1.4-0.2-2-0.2c-0.8,0-1.4,0.1-1.9,0.4c-0.5,0.3-0.7,0.7-0.7,1.2c0,0.5,0.2,0.8,0.6,1.1
		c0.4,0.3,0.8,0.5,1.4,0.7c0.6,0.2,1.2,0.4,1.8,0.6c0.7,0.2,1.3,0.5,1.8,0.8c0.6,0.3,1,0.8,1.4,1.4c0.4,0.6,0.6,1.3,0.6,2.2
		c0,0.8-0.1,1.5-0.3,2.1c-0.2,0.6-0.6,1.2-1,1.6c-0.5,0.4-1.1,0.8-1.8,1c-0.7,0.2-1.6,0.4-2.7,0.4c-1,0-1.8-0.1-2.7-0.3
		c-0.8-0.2-1.6-0.5-2.3-0.9l0.4-2.8c0.6,0.4,1.3,0.7,2.2,0.9c0.8,0.2,1.6,0.3,2.3,0.3c1,0,1.7-0.2,2.1-0.6c0.4-0.4,0.6-0.9,0.6-1.4
		c0-0.5-0.2-0.9-0.6-1.2c-0.4-0.3-0.9-0.5-1.4-0.7c-0.6-0.2-1.2-0.4-1.9-0.6c-0.7-0.2-1.3-0.5-1.9-0.8c-0.6-0.3-1.1-0.8-1.4-1.4
		C169.3,30.5,169.1,29.7,169.1,28.8"/>
	<path class="st7" d="M198,40.3V24.5l2.4-0.2l0.5,1.5c0.6-0.6,1.3-1,2.1-1.3c0.8-0.3,1.6-0.4,2.5-0.4c1.7,0,3,0.5,4,1.5
		c1,1,1.5,2.5,1.5,4.4v10.3h-3.3V30c0-1-0.3-1.7-0.8-2.2c-0.5-0.4-1.3-0.7-2.3-0.7c-0.6,0-1.2,0.1-1.8,0.4c-0.6,0.3-1,0.6-1.4,1.1
		v11.6H198z"/>
	<path class="st7" d="M214.8,20.7c0-1.1,0.7-1.6,2-1.6c1.3,0,2,0.5,2,1.6c0,1.1-0.7,1.6-2,1.6c-0.7,0-1.2-0.1-1.5-0.3
		C215,21.7,214.8,21.3,214.8,20.7 M215.1,40.3V24.5l3.3-0.2v16H215.1z"/>
	<path class="st7" d="M247.2,28.8c0-1.4,0.5-2.5,1.5-3.4c1-0.9,2.4-1.3,4.4-1.3c1.6,0,3,0.3,4.4,0.9l-0.3,2.8
		c-0.7-0.3-1.4-0.5-2.1-0.6c-0.7-0.1-1.4-0.2-2-0.2c-0.8,0-1.4,0.1-1.9,0.4c-0.5,0.3-0.7,0.7-0.7,1.2c0,0.5,0.2,0.8,0.6,1.1
		c0.4,0.3,0.8,0.5,1.4,0.7c0.6,0.2,1.2,0.4,1.8,0.6c0.7,0.2,1.3,0.5,1.8,0.8c0.6,0.3,1,0.8,1.4,1.4c0.4,0.6,0.6,1.3,0.6,2.2
		c0,0.8-0.1,1.5-0.3,2.1c-0.2,0.6-0.6,1.2-1,1.6c-0.5,0.4-1.1,0.8-1.8,1s-1.6,0.4-2.7,0.4c-1,0-1.8-0.1-2.7-0.3
		c-0.8-0.2-1.6-0.5-2.3-0.9l0.4-2.8c0.6,0.4,1.3,0.7,2.2,0.9c0.8,0.2,1.6,0.3,2.3,0.3c1,0,1.7-0.2,2.1-0.6c0.4-0.4,0.6-0.9,0.6-1.4
		c0-0.5-0.2-0.9-0.6-1.2c-0.4-0.3-0.9-0.5-1.4-0.7c-0.6-0.2-1.2-0.4-1.9-0.6c-0.7-0.2-1.3-0.5-1.9-0.8c-0.6-0.3-1.1-0.8-1.4-1.4
		S247.2,29.7,247.2,28.8"/>
	<path class="st7" d="M194.3,27.5c-0.2-0.8-0.6-1.4-1-1.9c-0.5-0.5-1.1-0.9-1.9-1.1c-0.8-0.2-1.7-0.4-2.8-0.4c-2,0-3.7,0.3-5.3,1
		l0.3,2.7c0.7-0.3,1.4-0.5,2.1-0.7s1.4-0.2,2.3-0.2c1.2,0,2,0.2,2.5,0.6c0.5,0.4,0.8,1.1,0.8,2.1v5.8c0,0.3-0.1,0.5-0.3,0.8
		c-0.2,0.3-0.4,0.5-0.7,0.7c-0.3,0.2-0.6,0.4-1,0.5c-0.4,0.1-0.8,0.2-1.2,0.2c-0.8,0-1.4-0.2-1.9-0.5c-0.5-0.4-0.7-1-0.7-1.9
		c0-0.8,0.2-1.4,0.7-1.8c0.5-0.4,1.3-0.6,2.4-0.6c0.7,0,1,0,1.4,0.1c0.1,0,0.1,0,0.1,0v-2.3c-0.2,0-0.2-0.1-0.4-0.1
		c-0.6-0.1-1.1-0.1-1.8-0.1c-1.9,0-3.3,0.4-4.3,1.3c-1,0.9-1.5,2.1-1.5,3.6c0,1.8,0.5,3,1.4,3.9c0.9,0.8,2.1,1.3,3.6,1.3
		c1,0,1.8-0.2,2.6-0.5c0.8-0.3,1.4-0.8,1.9-1.4l0.1,0l0.3,1.7h2.5v-9.9C194.7,29.2,194.6,28.3,194.3,27.5"/>
	<path class="st7" d="M244.1,27.5c-0.2-0.8-0.6-1.4-1-1.9c-0.5-0.5-1.1-0.9-1.9-1.1c-0.8-0.2-1.7-0.4-2.8-0.4c-2,0-3.7,0.3-5.3,1
		l0.3,2.7c0.7-0.3,1.4-0.5,2.1-0.7c0.7-0.1,1.4-0.2,2.3-0.2c1.2,0,2,0.2,2.5,0.6c0.5,0.4,0.8,1.1,0.8,2.1v5.8c0,0.3-0.1,0.5-0.3,0.8
		c-0.2,0.3-0.4,0.5-0.7,0.7c-0.3,0.2-0.6,0.4-1,0.5c-0.4,0.1-0.8,0.2-1.2,0.2c-0.8,0-1.4-0.2-1.9-0.5c-0.5-0.4-0.7-1-0.7-1.9
		c0-0.8,0.2-1.4,0.7-1.8c0.5-0.4,1.3-0.6,2.4-0.6c0.7,0,1,0,1.4,0.1c0.1,0,0.1,0,0.1,0v-2.3c-0.2,0-0.2-0.1-0.4-0.1
		c-0.6-0.1-1.1-0.1-1.8-0.1c-1.9,0-3.3,0.4-4.3,1.3c-1,0.9-1.5,2.1-1.5,3.6c0,1.8,0.5,3,1.4,3.9c0.9,0.8,2.1,1.3,3.6,1.3
		c0.9,0,1.8-0.2,2.6-0.5c0.8-0.3,1.4-0.8,1.9-1.4l0.1,0l0.3,1.7h2.5v-9.9C244.5,29.2,244.3,28.3,244.1,27.5"/>
	<g>
		<defs>
			<path id="SVGID_1_" d="M105.6,1.4c-3.3,2-5.6,4.8-7.3,8.2c-0.9,1.7-1.4,2.8-2.3,4.8c0.3,0.4,0.5,0.7,0.7,1c1,1.4,5.1,8.6,5.1,8.6
				l-6.6,2c4.4-1.3,8.4-2.4,13-3.8c0.5-0.2,1.2-0.4,1.5-0.8c3.6-4.5,6-9.5,5.4-15.4c-0.4-3.8-2.4-5.8-5.2-5.8
				C108.6,0,107.1,0.4,105.6,1.4"/>
		</defs>
		<clipPath id="SVGID_2_">
			<use xlink:href="#SVGID_1_"  style="overflow:visible;"/>
		</clipPath>
		
			<linearGradient id="SVGID_3_" gradientUnits="userSpaceOnUse" x1="-377.0737" y1="248.4473" x2="-376.6224" y2="248.4473" gradientTransform="matrix(-15.5939 -42.8438 -42.8438 15.5939 4873.0557 -20007.6074)">
			<stop  offset="0" style="stop-color:#65ABC9"/>
			<stop  offset="0.3887" style="stop-color:#64A9C7"/>
			<stop  offset="0.591" style="stop-color:#62A1C2"/>
			<stop  offset="0.7503" style="stop-color:#5F93B9"/>
			<stop  offset="0.8864" style="stop-color:#5A81AC"/>
			<stop  offset="0.939" style="stop-color:#5877A6"/>
			<stop  offset="1" style="stop-color:#5877A6"/>
		</linearGradient>
		<polygon class="st1" points="97.5,32.5 86.8,3 113.3,-6.6 124,22.8 		"/>
	</g>
	<g>
		<path class="st8" d="M96.6,15.3c-0.2-0.3-0.4-0.6-0.7-1c0,0.1-0.1,0.2-0.1,0.3c-0.4,0.9-4.4,12.1-4.4,12.1l0.7,0c0,0,0,0,0,0
			c1-0.3,2-0.6,3-0.9l6.6-2C101.7,23.9,97.6,16.7,96.6,15.3"/>
		<path class="st8" d="M92.5,26.7l2.6-0.8c-1,0.3-2,0.6-3,0.9C92.3,26.7,92.4,26.7,92.5,26.7"/>
		<path class="st6" d="M95.8,14.6c0-0.1,0.1-0.2,0.1-0.3c-1.1-1.7-2.9-4.3-4.1-5.4c-1.7-1.6-3.8-1.5-4.5,1.9
			c-0.1,0.3-0.1,0.6-0.1,0.9c-0.1,5.1,0.9,9,2.8,14.1c0.5,0.9,1.2,1.1,2.1,0.9l-0.7,0C91.4,26.7,95.4,15.5,95.8,14.6"/>
		<path class="st3" d="M102.2,33.4c0-1.2-0.3-8.4-0.3-8.4l-3.3,0.9c-1.8,0.5-3.7,1.1-5.5,1.6L92,28.1c0,0,7.5,4.9,9.9,6.5
			c0.1,0.1,0.2,0.1,0.3,0.2C102.2,34.2,102.2,33.7,102.2,33.4"/>
		<path class="st0" d="M92,28.1l1.1-0.6c1.8-0.5-0.4,0.1-0.4,0.1c-0.9,0.4-1.5,0.9-1.3,1.9c1.3,4,2.6,8,5.5,11.5
			c0.2,0.2,0.4,0.4,0.6,0.6c2.3,2,3.9,2,4.4-1c0.2-1.3,0.2-4,0.2-5.8c-0.1-0.1-0.2-0.1-0.3-0.2C99.5,33,92,28.1,92,28.1"/>
	</g>
	<g>
		<defs>
			<path id="SVGID_4_" d="M109.1,22.9c-3.5,1-7.2,2.1-7.2,2.1s0.3,7.3,0.3,8.4c0,0.3,0,0.8,0,1.4c1.8,1.2,3.8,2.4,5.4,3.2
				c3.1,1.8,6.4,2.9,10.1,2.8c5.4-0.2,7.8-3.7,5.4-8.5c-2.6-5-7.1-7.8-12.3-9.6c-0.1-0.1-0.3-0.1-0.5-0.1
				C109.9,22.7,109.5,22.8,109.1,22.9"/>
		</defs>
		<clipPath id="SVGID_5_">
			<use xlink:href="#SVGID_4_"  style="overflow:visible;"/>
		</clipPath>
		
			<linearGradient id="SVGID_6_" gradientUnits="userSpaceOnUse" x1="-372.313" y1="247.9355" x2="-371.8621" y2="247.9355" gradientTransform="matrix(15.7563 43.2902 43.2902 -15.7563 -4756.793 20046.084)">
			<stop  offset="0" style="stop-color:#9CC34C"/>
			<stop  offset="0.383" style="stop-color:#A2C64D"/>
			<stop  offset="0.6721" style="stop-color:#90B74D"/>
			<stop  offset="1" style="stop-color:#77A14C"/>
		</linearGradient>
		<polygon class="st4" points="122.7,15.1 131.3,38.8 104.7,48.5 96.1,24.8 		"/>
	</g>
</g>
</svg>
